<svg width="688" height="204" viewBox="0 0 688 204" fill="none" xmlns="http://www.w3.org/2000/svg">
<g clip-path="url(#clip0_1327_34863)">
<mask id="path-1-outside-1_1327_34863" maskUnits="userSpaceOnUse" x="0.5" y="0" width="687" height="204" fill="black">
<rect fill="white" x="0.5" width="687" height="204"/>
<path d="M0.5 0H687.5V200H0.5V0Z"/>
</mask>
<path d="M0.5 0H687.5V200H0.5V0Z" fill="url(#paint0_linear_1327_34863)"/>
<g opacity="0.3">
<path opacity="0.1" d="M243.314 34.9243C242.516 34.2421 241.482 33.8309 240.358 33.8309H102.033C100.777 33.8309 99.6436 34.337 98.8231 35.1547C97.998 35.9724 97.4902 37.1064 97.4902 38.3579V135.551C97.4902 137.196 98.3697 138.632 99.6798 139.427C100.369 139.843 101.171 140.078 102.033 140.078H240.358C241.668 140.078 242.847 139.522 243.681 138.641C244.438 137.828 244.9 136.744 244.9 135.551V38.3579C244.896 36.9799 244.284 35.7511 243.314 34.9243Z" fill="black"/>
<path d="M237.986 32.2677H96.7822V101.274H237.986V32.2677Z" fill="#CEEBFE"/>
<path d="M95.1504 91.2443C95.1504 91.2443 104.235 89.532 129.354 89.532C154.474 89.532 189.439 98.7439 214.631 98.7439L213.593 110.662L96.796 109.289L95.1504 91.2443Z" fill="#D64C88"/>
<path d="M129.354 90.5801C105.559 90.5801 96.1523 91.9581 95.2275 92.1026L95.1504 91.2443C95.1504 91.2443 104.235 89.532 129.354 89.532C154.474 89.532 189.439 98.7439 214.631 98.7439L214.622 98.8433C189.43 98.8388 154.474 90.5801 129.354 90.5801Z" fill="#0064A7"/>
<path d="M96.7948 108.304L213.591 109.533L214.548 99.7063L213.591 110.662L96.7948 109.289L95.9199 99.7108L96.7948 108.304Z" fill="#0064A7"/>
<path d="M121.404 95.8975C125.797 95.4547 128.268 84.1239 128.998 80.0443C129.727 75.9646 129.727 75.9646 129.727 75.9646H132.869C132.869 75.9646 132.574 77.2025 132.067 80.4102C131.554 83.6179 128.726 94.2846 136.015 95.2469L131.627 97.8673L123.802 98.292L121.404 95.8975Z" fill="#278FD0"/>
<path d="M115.898 74.7493C117.388 74.7493 118.596 73.5458 118.596 72.0612C118.596 70.5765 117.388 69.373 115.898 69.373C114.409 69.373 113.201 70.5765 113.201 72.0612C113.201 73.5458 114.409 74.7493 115.898 74.7493Z" fill="#278FD0"/>
<path d="M122.599 74.7493C124.088 74.7493 125.296 73.5458 125.296 72.0612C125.296 70.5765 124.088 69.373 122.599 69.373C121.109 69.373 119.901 70.5765 119.901 72.0612C119.901 73.5458 121.109 74.7493 122.599 74.7493Z" fill="#278FD0"/>
<path d="M129.298 74.7493C130.788 74.7493 131.995 73.5458 131.995 72.0612C131.995 70.5765 130.788 69.373 129.298 69.373C127.808 69.373 126.601 70.5765 126.601 72.0612C126.601 73.5458 127.808 74.7493 129.298 74.7493Z" fill="#278FD0"/>
<path d="M135.998 74.7493C137.488 74.7493 138.695 73.5458 138.695 72.0612C138.695 70.5765 137.488 69.373 135.998 69.373C134.508 69.373 133.301 70.5765 133.301 72.0612C133.301 73.5458 134.508 74.7493 135.998 74.7493Z" fill="#278FD0"/>
<path d="M142.696 74.7493C144.186 74.7493 145.394 73.5458 145.394 72.0612C145.394 70.5765 144.186 69.373 142.696 69.373C141.207 69.373 139.999 70.5765 139.999 72.0612C139.999 73.5458 141.207 74.7493 142.696 74.7493Z" fill="#278FD0"/>
<path d="M135.098 85.8452C136.587 85.8452 137.795 84.6417 137.795 83.157C137.795 81.6724 136.587 80.4689 135.098 80.4689C133.608 80.4689 132.4 81.6724 132.4 83.157C132.4 84.6417 133.608 85.8452 135.098 85.8452Z" fill="#278FD0"/>
<path d="M149.397 74.7493C150.886 74.7493 152.094 73.5458 152.094 72.0612C152.094 70.5765 150.886 69.373 149.397 69.373C147.907 69.373 146.699 70.5765 146.699 72.0612C146.699 73.5458 147.907 74.7493 149.397 74.7493Z" fill="#278FD0"/>
<path d="M141.798 85.8452C143.288 85.8452 144.495 84.6417 144.495 83.157C144.495 81.6724 143.288 80.4689 141.798 80.4689C140.308 80.4689 139.101 81.6724 139.101 83.157C139.101 84.6417 140.308 85.8452 141.798 85.8452Z" fill="#278FD0"/>
<path d="M119.266 68.1577C120.755 68.1577 121.963 66.9542 121.963 65.4696C121.963 63.985 120.755 62.7815 119.266 62.7815C117.776 62.7815 116.568 63.985 116.568 65.4696C116.568 66.9542 117.776 68.1577 119.266 68.1577Z" fill="#278FD0"/>
<path d="M125.968 68.1577C127.458 68.1577 128.665 66.9542 128.665 65.4696C128.665 63.985 127.458 62.7815 125.968 62.7815C124.478 62.7815 123.271 63.985 123.271 65.4696C123.271 66.9542 124.478 68.1577 125.968 68.1577Z" fill="#278FD0"/>
<path d="M132.665 68.1577C134.155 68.1577 135.362 66.9542 135.362 65.4696C135.362 63.985 134.155 62.7815 132.665 62.7815C131.175 62.7815 129.968 63.985 129.968 65.4696C129.968 66.9542 131.175 68.1577 132.665 68.1577Z" fill="#278FD0"/>
<path d="M139.365 68.1577C140.855 68.1577 142.063 66.9542 142.063 65.4696C142.063 63.985 140.855 62.7815 139.365 62.7815C137.876 62.7815 136.668 63.985 136.668 65.4696C136.668 66.9542 137.876 68.1577 139.365 68.1577Z" fill="#278FD0"/>
<path d="M146.064 68.1577C147.553 68.1577 148.761 66.9542 148.761 65.4696C148.761 63.985 147.553 62.7815 146.064 62.7815C144.574 62.7815 143.366 63.985 143.366 65.4696C143.366 66.9542 144.574 68.1577 146.064 68.1577Z" fill="#278FD0"/>
<path d="M123.252 62.176C124.742 62.176 125.949 60.9725 125.949 59.4879C125.949 58.0033 124.742 56.7998 123.252 56.7998C121.762 56.7998 120.555 58.0033 120.555 59.4879C120.555 60.9725 121.762 62.176 123.252 62.176Z" fill="#278FD0"/>
<path d="M129.954 62.176C131.444 62.176 132.652 60.9725 132.652 59.4879C132.652 58.0033 131.444 56.7998 129.954 56.7998C128.464 56.7998 127.257 58.0033 127.257 59.4879C127.257 60.9725 128.464 62.176 129.954 62.176Z" fill="#278FD0"/>
<path d="M136.651 62.176C138.141 62.176 139.349 60.9725 139.349 59.4879C139.349 58.0033 138.141 56.7998 136.651 56.7998C135.162 56.7998 133.954 58.0033 133.954 59.4879C133.954 60.9725 135.162 62.176 136.651 62.176Z" fill="#278FD0"/>
<path d="M143.348 62.176C144.837 62.176 146.045 60.9725 146.045 59.4879C146.045 58.0033 144.837 56.7998 143.348 56.7998C141.858 56.7998 140.65 58.0033 140.65 59.4879C140.65 60.9725 141.858 62.176 143.348 62.176Z" fill="#278FD0"/>
<path d="M127.34 56.1943C128.83 56.1943 130.037 54.9908 130.037 53.5062C130.037 52.0216 128.83 50.8181 127.34 50.8181C125.85 50.8181 124.643 52.0216 124.643 53.5062C124.643 54.9908 125.85 56.1943 127.34 56.1943Z" fill="#278FD0"/>
<path d="M134.04 56.1943C135.53 56.1943 136.737 54.9908 136.737 53.5062C136.737 52.0216 135.53 50.8181 134.04 50.8181C132.55 50.8181 131.343 52.0216 131.343 53.5062C131.343 54.9908 132.55 56.1943 134.04 56.1943Z" fill="#278FD0"/>
<path d="M140.739 56.1943C142.229 56.1943 143.437 54.9908 143.437 53.5062C143.437 52.0216 142.229 50.8181 140.739 50.8181C139.25 50.8181 138.042 52.0216 138.042 53.5062C138.042 54.9908 139.25 56.1943 140.739 56.1943Z" fill="#278FD0"/>
<path d="M132.014 50.2127C133.503 50.2127 134.711 49.0092 134.711 47.5246C134.711 46.04 133.503 44.8364 132.014 44.8364C130.524 44.8364 129.316 46.04 129.316 47.5246C129.316 49.0092 130.524 50.2127 132.014 50.2127Z" fill="#278FD0"/>
<path d="M138.714 50.2127C140.204 50.2127 141.411 49.0092 141.411 47.5246C141.411 46.04 140.204 44.8364 138.714 44.8364C137.224 44.8364 136.017 46.04 136.017 47.5246C136.017 49.0092 137.224 50.2127 138.714 50.2127Z" fill="#278FD0"/>
<path d="M207.353 85.8633C209.356 85.66 210.485 80.487 210.821 78.6211C211.156 76.7598 211.156 76.7598 211.156 76.7598H212.593C212.593 76.7598 212.462 77.3245 212.226 78.7883C211.99 80.2521 210.698 85.1269 214.03 85.5651L212.026 86.7624L208.454 86.9567L207.353 85.8633Z" fill="#278FD0"/>
<path d="M204.84 76.204C205.521 76.204 206.073 75.6539 206.073 74.9752C206.073 74.2965 205.521 73.7463 204.84 73.7463C204.159 73.7463 203.606 74.2965 203.606 74.9752C203.606 75.6539 204.159 76.204 204.84 76.204Z" fill="#278FD0"/>
<path d="M207.894 76.204C208.575 76.204 209.127 75.6539 209.127 74.9752C209.127 74.2965 208.575 73.7463 207.894 73.7463C207.213 73.7463 206.661 74.2965 206.661 74.9752C206.661 75.6539 207.213 76.204 207.894 76.204Z" fill="#278FD0"/>
<path d="M210.956 76.204C211.637 76.204 212.189 75.6539 212.189 74.9752C212.189 74.2965 211.637 73.7463 210.956 73.7463C210.275 73.7463 209.723 74.2965 209.723 74.9752C209.723 75.6539 210.275 76.204 210.956 76.204Z" fill="#278FD0"/>
<path d="M214.014 76.204C214.695 76.204 215.247 75.6539 215.247 74.9752C215.247 74.2965 214.695 73.7463 214.014 73.7463C213.333 73.7463 212.781 74.2965 212.781 74.9752C212.781 75.6539 213.333 76.204 214.014 76.204Z" fill="#278FD0"/>
<path d="M217.075 76.204C217.756 76.204 218.308 75.6539 218.308 74.9752C218.308 74.2965 217.756 73.7463 217.075 73.7463C216.394 73.7463 215.842 74.2965 215.842 74.9752C215.842 75.6539 216.394 76.204 217.075 76.204Z" fill="#278FD0"/>
<path d="M220.135 76.204C220.816 76.204 221.368 75.6539 221.368 74.9752C221.368 74.2965 220.816 73.7463 220.135 73.7463C219.454 73.7463 218.902 74.2965 218.902 74.9752C218.902 75.6539 219.454 76.204 220.135 76.204Z" fill="#278FD0"/>
<path d="M206.376 73.1952C207.057 73.1952 207.609 72.6451 207.609 71.9664C207.609 71.2877 207.057 70.7375 206.376 70.7375C205.695 70.7375 205.143 71.2877 205.143 71.9664C205.143 72.6451 205.695 73.1952 206.376 73.1952Z" fill="#278FD0"/>
<path d="M209.434 73.1952C210.115 73.1952 210.667 72.6451 210.667 71.9664C210.667 71.2877 210.115 70.7375 209.434 70.7375C208.753 70.7375 208.201 71.2877 208.201 71.9664C208.201 72.6451 208.753 73.1952 209.434 73.1952Z" fill="#278FD0"/>
<path d="M212.496 73.1952C213.177 73.1952 213.729 72.6451 213.729 71.9664C213.729 71.2877 213.177 70.7375 212.496 70.7375C211.815 70.7375 211.263 71.2877 211.263 71.9664C211.263 72.6451 211.815 73.1952 212.496 73.1952Z" fill="#278FD0"/>
<path d="M215.554 73.1952C216.235 73.1952 216.787 72.6451 216.787 71.9664C216.787 71.2877 216.235 70.7375 215.554 70.7375C214.873 70.7375 214.321 71.2877 214.321 71.9664C214.321 72.6451 214.873 73.1952 215.554 73.1952Z" fill="#278FD0"/>
<path d="M218.611 73.1952C219.292 73.1952 219.844 72.6451 219.844 71.9664C219.844 71.2877 219.292 70.7375 218.611 70.7375C217.93 70.7375 217.378 71.2877 217.378 71.9664C217.378 72.6451 217.93 73.1952 218.611 73.1952Z" fill="#278FD0"/>
<path d="M208.194 70.4618C208.875 70.4618 209.427 69.9116 209.427 69.2329C209.427 68.5542 208.875 68.004 208.194 68.004C207.513 68.004 206.961 68.5542 206.961 69.2329C206.961 69.9116 207.513 70.4618 208.194 70.4618Z" fill="#278FD0"/>
<path d="M211.255 70.4618C211.936 70.4618 212.488 69.9116 212.488 69.2329C212.488 68.5542 211.936 68.004 211.255 68.004C210.574 68.004 210.021 68.5542 210.021 69.2329C210.021 69.9116 210.574 70.4618 211.255 70.4618Z" fill="#278FD0"/>
<path d="M214.314 70.4618C214.995 70.4618 215.547 69.9116 215.547 69.2329C215.547 68.5542 214.995 68.004 214.314 68.004C213.633 68.004 213.081 68.5542 213.081 69.2329C213.081 69.9116 213.633 70.4618 214.314 70.4618Z" fill="#278FD0"/>
<path d="M217.374 70.4618C218.055 70.4618 218.607 69.9116 218.607 69.2329C218.607 68.5542 218.055 68.004 217.374 68.004C216.693 68.004 216.141 68.5542 216.141 69.2329C216.141 69.9116 216.693 70.4618 217.374 70.4618Z" fill="#278FD0"/>
<path d="M210.062 67.7285C210.743 67.7285 211.295 67.1783 211.295 66.4996C211.295 65.8209 210.743 65.2708 210.062 65.2708C209.381 65.2708 208.829 65.8209 208.829 66.4996C208.829 67.1783 209.381 67.7285 210.062 67.7285Z" fill="#278FD0"/>
<path d="M213.121 67.7285C213.802 67.7285 214.354 67.1783 214.354 66.4996C214.354 65.8209 213.802 65.2708 213.121 65.2708C212.44 65.2708 211.888 65.8209 211.888 66.4996C211.888 67.1783 212.44 67.7285 213.121 67.7285Z" fill="#278FD0"/>
<path d="M216.182 67.7285C216.863 67.7285 217.415 67.1783 217.415 66.4996C217.415 65.8209 216.863 65.2708 216.182 65.2708C215.501 65.2708 214.949 65.8209 214.949 66.4996C214.949 67.1783 215.501 67.7285 216.182 67.7285Z" fill="#278FD0"/>
<path d="M212.198 64.9997C212.879 64.9997 213.431 64.4495 213.431 63.7708C213.431 63.0922 212.879 62.542 212.198 62.542C211.517 62.542 210.965 63.0922 210.965 63.7708C210.965 64.4495 211.517 64.9997 212.198 64.9997Z" fill="#278FD0"/>
<path d="M215.256 64.9997C215.937 64.9997 216.49 64.4495 216.49 63.7708C216.49 63.0922 215.937 62.542 215.256 62.542C214.575 62.542 214.023 63.0922 214.023 63.7708C214.023 64.4495 214.575 64.9997 215.256 64.9997Z" fill="#278FD0"/>
<path d="M189.449 86.4913C190.746 86.3603 191.476 83.0171 191.689 81.8153C191.906 80.6135 191.906 80.6135 191.906 80.6135H192.836C192.836 80.6135 192.75 80.9795 192.6 81.9237C192.45 82.868 191.612 86.0169 193.765 86.3015L192.473 87.0741L190.166 87.2006L189.449 86.4913Z" fill="#278FD0"/>
<path d="M189.802 80.2566C190.242 80.2566 190.6 79.9006 190.6 79.4614C190.6 79.0223 190.242 78.6663 189.802 78.6663C189.361 78.6663 189.004 79.0223 189.004 79.4614C189.004 79.9006 189.361 80.2566 189.802 80.2566Z" fill="#278FD0"/>
<path d="M191.776 80.2566C192.217 80.2566 192.574 79.9006 192.574 79.4614C192.574 79.0223 192.217 78.6663 191.776 78.6663C191.336 78.6663 190.979 79.0223 190.979 79.4614C190.979 79.9006 191.336 80.2566 191.776 80.2566Z" fill="#278FD0"/>
<path d="M193.754 80.2566C194.195 80.2566 194.552 79.9006 194.552 79.4614C194.552 79.0223 194.195 78.6663 193.754 78.6663C193.313 78.6663 192.956 79.0223 192.956 79.4614C192.956 79.9006 193.313 80.2566 193.754 80.2566Z" fill="#278FD0"/>
<path d="M195.732 80.2566C196.173 80.2566 196.53 79.9006 196.53 79.4614C196.53 79.0223 196.173 78.6663 195.732 78.6663C195.292 78.6663 194.935 79.0223 194.935 79.4614C194.935 79.9006 195.292 80.2566 195.732 80.2566Z" fill="#278FD0"/>
<path d="M190.796 78.3094C191.237 78.3094 191.594 77.9534 191.594 77.5143C191.594 77.0751 191.237 76.7191 190.796 76.7191C190.355 76.7191 189.998 77.0751 189.998 77.5143C189.998 77.9534 190.355 78.3094 190.796 78.3094Z" fill="#278FD0"/>
<path d="M192.771 78.3094C193.211 78.3094 193.568 77.9534 193.568 77.5143C193.568 77.0751 193.211 76.7191 192.771 76.7191C192.33 76.7191 191.973 77.0751 191.973 77.5143C191.973 77.9534 192.33 78.3094 192.771 78.3094Z" fill="#278FD0"/>
<path d="M194.748 78.3094C195.189 78.3094 195.546 77.9534 195.546 77.5143C195.546 77.0751 195.189 76.7191 194.748 76.7191C194.307 76.7191 193.95 77.0751 193.95 77.5143C193.95 77.9534 194.307 78.3094 194.748 78.3094Z" fill="#278FD0"/>
<path d="M191.968 76.5475C192.408 76.5475 192.766 76.1915 192.766 75.7523C192.766 75.3132 192.408 74.9572 191.968 74.9572C191.527 74.9572 191.17 75.3132 191.17 75.7523C191.17 76.1915 191.527 76.5475 191.968 76.5475Z" fill="#278FD0"/>
<path d="M193.942 76.5475C194.383 76.5475 194.74 76.1915 194.74 75.7523C194.74 75.3132 194.383 74.9572 193.942 74.9572C193.502 74.9572 193.145 75.3132 193.145 75.7523C193.145 76.1915 193.502 76.5475 193.942 76.5475Z" fill="#278FD0"/>
<path d="M236.667 88.9581C236.667 88.9581 225.909 85.0547 196.153 85.0547C166.4 85.0547 124.988 106.076 95.1455 106.076L96.3741 133.279L234.713 130.148L236.667 88.9581Z" fill="#278FD0"/>
<path d="M196.153 87.4447C224.337 87.4447 235.475 90.5846 236.572 90.9189L236.663 88.9581C236.663 88.9581 225.905 85.0547 196.149 85.0547C166.396 85.0547 124.984 106.076 95.1416 106.076L95.1506 106.302C125.003 106.298 166.405 87.4447 196.153 87.4447Z" fill="#0064A7"/>
<path d="M234.717 127.893L96.3778 130.703L95.249 108.277L96.3778 133.279L234.717 130.148L235.75 108.281L234.717 127.893Z" fill="#0064A7"/>
<path d="M95.1494 103.605C95.1494 103.605 105.594 95.2695 135.346 95.2695C165.099 95.2695 206.511 111.837 236.353 111.837L235.125 133.274L96.786 130.807L95.1494 103.605Z" fill="#D64C88"/>
<path d="M135.347 99.4305C165.023 99.4305 206.289 115.912 236.114 115.998L236.354 111.837C206.512 111.837 165.104 95.2695 135.347 95.2695C105.595 95.2695 95.1504 103.605 95.1504 103.605L95.3907 107.594C97.0907 106.393 108.152 99.4305 135.347 99.4305Z" fill="#0064A7"/>
<path d="M235.12 131.883L200.422 132.66L235.12 133.279L235.428 127.902L235.12 131.883Z" fill="#0064A7"/>
<path d="M237.986 29.7061C237.188 29.0239 236.154 28.6128 235.03 28.6128H96.7045C95.4488 28.6128 94.3155 29.1188 93.4949 29.9365C92.6699 30.7542 92.1621 31.8883 92.1621 33.1397V130.333C92.1621 131.977 93.0416 133.414 94.3517 134.209C95.0408 134.625 95.8432 134.86 96.7045 134.86H235.03C236.34 134.86 237.519 134.304 238.353 133.423C239.11 132.61 239.572 131.526 239.572 130.333V33.1397C239.572 31.7618 238.956 30.5329 237.986 29.7061ZM227.387 129.352H104.339C103.382 129.352 102.494 129.059 101.759 128.548C100.571 127.735 99.7962 126.371 99.7962 124.826V38.6425C99.7962 37.6259 100.132 36.6817 100.707 35.9227C101.532 34.8248 102.852 34.1155 104.334 34.1155H227.382C228.715 34.1155 229.912 34.6848 230.746 35.5974C231.48 36.4061 231.925 37.4723 231.925 38.6425V124.826C231.925 126.041 231.444 127.143 230.664 127.952C229.844 128.815 228.679 129.352 227.387 129.352Z" fill="#278FD0"/>
<path d="M101.759 128.548L94.3517 134.205C93.0416 133.414 92.1621 131.973 92.1621 130.328V33.1352C92.1621 31.8838 92.6699 30.7497 93.4949 29.932L100.712 35.9182C100.136 36.6772 99.8008 37.6214 99.8008 38.638V124.821C99.7962 126.371 100.571 127.735 101.759 128.548Z" fill="#0064A7"/>
<path d="M239.571 33.1398V130.333C239.571 131.526 239.108 132.61 238.351 133.423L230.672 127.957C231.452 127.143 231.932 126.045 231.932 124.83V38.6471C231.932 37.4769 231.488 36.4107 230.753 35.602L237.989 29.7107C238.954 30.5329 239.571 31.7619 239.571 33.1398Z" fill="#0064A7"/>
<path d="M237.984 29.7061L230.749 35.5974C229.919 34.6893 228.718 34.1155 227.385 34.1155H104.337C102.85 34.1155 101.531 34.8248 100.71 35.9227L93.4932 29.9365C94.3137 29.1188 95.447 28.6128 96.7027 28.6128H235.028C236.152 28.6128 237.186 29.0194 237.984 29.7061Z" fill="#278FD0"/>
<path d="M238.35 133.419C237.52 134.3 236.341 134.855 235.027 134.855H96.7014C95.8446 134.855 95.0377 134.616 94.3486 134.205L101.756 128.548C102.49 129.059 103.379 129.352 104.336 129.352H227.384C228.676 129.352 229.836 128.815 230.666 127.952L238.35 133.419Z" fill="#278FD0"/>
<path d="M187.494 59.1311C189.965 59.1311 191.968 57.1346 191.968 54.6719C191.968 52.2092 189.965 50.2128 187.494 50.2128C185.023 50.2128 183.02 52.2092 183.02 54.6719C183.02 57.1346 185.023 59.1311 187.494 59.1311Z" fill="#D0C13C"/>
</g>
<ellipse cx="58.4808" cy="39.7198" rx="58.4808" ry="39.7198" transform="matrix(-1 0 0 1 374.419 6.22485)" fill="#FFFFFB"/>
<path d="M365.349 26.9687C392.253 34.709 399.3 53.4426 401.887 62.542C392.85 53.6172 367.203 48.0187 356.079 56.7523L351.01 45.9557C342.961 35.9349 338.444 19.2285 365.349 26.9687Z" fill="#FFFFFB"/>
<path d="M336.067 51.9289C335.889 51.9289 335.733 51.8735 335.6 51.7625C335.466 51.6294 335.4 51.4629 335.4 51.2632C335.4 51.0857 335.4 50.9082 335.4 50.7307C335.4 50.5532 335.4 50.3756 335.4 50.1981C335.489 49.3327 335.722 48.5672 336.101 47.9015C336.501 47.2136 336.958 46.5922 337.469 46.0375C338.003 45.4606 338.526 44.9169 339.038 44.4065C339.572 43.8962 340.018 43.3969 340.374 42.9087C340.752 42.3983 340.974 41.8769 341.041 41.3443C341.108 40.7008 340.974 40.1572 340.641 39.7134C340.329 39.2696 339.895 38.9367 339.339 38.7148C338.805 38.4707 338.237 38.3487 337.636 38.3487C336.59 38.3487 335.733 38.6039 335.066 39.1142C334.398 39.6246 333.942 40.4456 333.697 41.5773C333.63 41.8436 333.519 42.0433 333.363 42.1764C333.208 42.2874 332.996 42.3429 332.729 42.3429H329.892C329.691 42.3429 329.513 42.2763 329.358 42.1432C329.224 41.9878 329.157 41.7881 329.157 41.544C329.179 40.6564 329.38 39.8021 329.758 38.9811C330.159 38.1379 330.726 37.3834 331.461 36.7177C332.217 36.052 333.13 35.5306 334.198 35.1533C335.266 34.7539 336.49 34.5542 337.87 34.5542C339.383 34.5542 340.652 34.7539 341.676 35.1533C342.721 35.5306 343.545 36.0298 344.146 36.6511C344.769 37.2725 345.214 37.9493 345.481 38.6815C345.748 39.3916 345.871 40.0906 345.848 40.7785C345.804 41.6217 345.615 42.3762 345.281 43.0419C344.947 43.7076 344.535 44.3289 344.046 44.9058C343.556 45.4606 343.055 46.0153 342.543 46.5701C342.032 47.1026 341.575 47.6463 341.175 48.201C340.796 48.7558 340.541 49.3438 340.407 49.9651C340.362 50.1648 340.329 50.3645 340.307 50.5642C340.285 50.7418 340.262 50.9193 340.24 51.0968C340.151 51.3631 340.04 51.5739 339.906 51.7292C339.773 51.8624 339.584 51.9289 339.339 51.9289H336.067ZM335.967 58.1865C335.745 58.1865 335.555 58.1088 335.4 57.9535C335.244 57.7982 335.166 57.6096 335.166 57.3877V54.4919C335.166 54.2478 335.244 54.0481 335.4 53.8927C335.555 53.7374 335.745 53.6597 335.967 53.6597H339.205C339.45 53.6597 339.65 53.7374 339.806 53.8927C339.962 54.0481 340.04 54.2478 340.04 54.4919V57.3877C340.04 57.6096 339.962 57.7982 339.806 57.9535C339.65 58.1088 339.45 58.1865 339.205 58.1865H335.967Z" fill="#0064A7"/>
<path d="M294.814 28.5298H316.173C317.207 28.5298 318.046 29.3666 318.046 30.3977V64.0771H292.325V31.0116C292.325 29.6415 293.44 28.5298 294.814 28.5298Z" fill="#003D66"/>
<path d="M287.124 28.5298H308.037C309.062 28.5298 309.894 29.3594 309.894 30.3811V64.0771H284.658V30.9879C284.658 29.6297 285.764 28.5298 287.124 28.5298Z" fill="#0064A7"/>
<path d="M289.786 61.0239V36.2147" stroke="#1FA2FC" stroke-width="0.7176" stroke-miterlimit="10"/>
<path opacity="0.2" d="M290.419 56.9609C291.097 56.9609 291.648 56.4122 291.648 55.7354C291.648 55.0586 291.097 54.5099 290.419 54.5099C289.74 54.5099 289.189 55.0586 289.189 55.7354C289.189 56.4122 289.74 56.9609 290.419 56.9609Z" fill="black"/>
<path d="M289.786 56.1194C290.465 56.1194 291.015 55.5707 291.015 54.8939C291.015 54.217 290.465 53.6683 289.786 53.6683C289.107 53.6683 288.557 54.217 288.557 54.8939C288.557 55.5707 289.107 56.1194 289.786 56.1194Z" fill="#86CDFD"/>
<path opacity="0.2" d="M290.419 60.0425C291.097 60.0425 291.648 59.4938 291.648 58.8169C291.648 58.1401 291.097 57.5914 290.419 57.5914C289.74 57.5914 289.189 58.1401 289.189 58.8169C289.189 59.4938 289.74 60.0425 290.419 60.0425Z" fill="black"/>
<path d="M291.018 58.1865C291.018 58.8644 290.466 59.412 289.789 59.412C289.111 59.412 288.56 58.862 288.56 58.1865C288.56 57.5109 289.111 56.9609 289.789 56.9609C290.466 56.9609 291.018 57.5085 291.018 58.1865Z" fill="#F6F6F6"/>
<path opacity="0.2" d="M290.419 53.3175C291.097 53.3175 291.648 52.7688 291.648 52.092C291.648 51.4151 291.097 50.8665 290.419 50.8665C289.74 50.8665 289.189 51.4151 289.189 52.092C289.189 52.7688 289.74 53.3175 290.419 53.3175Z" fill="black"/>
<path d="M289.786 52.687C290.465 52.687 291.015 52.1383 291.015 51.4615C291.015 50.7846 290.465 50.236 289.786 50.236C289.107 50.236 288.557 50.7846 288.557 51.4615C288.557 52.1383 289.107 52.687 289.786 52.687Z" fill="#F6F6F6"/>
<path d="M296.331 61.0239V36.2147" stroke="#1FA2FC" stroke-width="0.7176" stroke-miterlimit="10"/>
<path opacity="0.2" d="M298.195 55.7354C298.195 56.4134 297.643 56.9609 296.965 56.9609C296.288 56.9609 295.736 56.411 295.736 55.7354C295.736 55.0598 296.288 54.5099 296.965 54.5099C297.643 54.5099 298.195 55.0575 298.195 55.7354Z" fill="black"/>
<path d="M296.331 56.1194C297.009 56.1194 297.56 55.5707 297.56 54.8939C297.56 54.217 297.009 53.6683 296.331 53.6683C295.652 53.6683 295.102 54.217 295.102 54.8939C295.102 55.5707 295.652 56.1194 296.331 56.1194Z" fill="#86CDFD"/>
<path opacity="0.2" d="M296.963 60.0425C297.642 60.0425 298.193 59.4938 298.193 58.8169C298.193 58.1401 297.642 57.5914 296.963 57.5914C296.285 57.5914 295.734 58.1401 295.734 58.8169C295.734 59.4938 296.285 60.0425 296.963 60.0425Z" fill="black"/>
<path d="M296.331 59.412C297.009 59.412 297.56 58.8633 297.56 58.1865C297.56 57.5096 297.009 56.9609 296.331 56.9609C295.652 56.9609 295.102 57.5096 295.102 58.1865C295.102 58.8633 295.652 59.412 296.331 59.412Z" fill="#F6F6F6"/>
<path opacity="0.2" d="M296.963 53.3175C297.642 53.3175 298.193 52.7688 298.193 52.092C298.193 51.4151 297.642 50.8665 296.963 50.8665C296.285 50.8665 295.734 51.4151 295.734 52.092C295.734 52.7688 296.285 53.3175 296.963 53.3175Z" fill="black"/>
<path d="M296.331 52.687C297.009 52.687 297.56 52.1383 297.56 51.4615C297.56 50.7846 297.009 50.236 296.331 50.236C295.652 50.236 295.102 50.7846 295.102 51.4615C295.102 52.1383 295.652 52.687 296.331 52.687Z" fill="#F6F6F6"/>
<path d="M302.878 61.0239V36.2147" stroke="#1FA2FC" stroke-width="0.7176" stroke-miterlimit="10"/>
<path opacity="0.2" d="M303.508 56.9609C304.187 56.9609 304.738 56.4122 304.738 55.7354C304.738 55.0586 304.187 54.5099 303.508 54.5099C302.83 54.5099 302.279 55.0586 302.279 55.7354C302.279 56.4122 302.83 56.9609 303.508 56.9609Z" fill="black"/>
<path d="M302.878 56.1194C303.557 56.1194 304.108 55.5707 304.108 54.8939C304.108 54.217 303.557 53.6683 302.878 53.6683C302.2 53.6683 301.649 54.217 301.649 54.8939C301.649 55.5707 302.2 56.1194 302.878 56.1194Z" fill="#86CDFD"/>
<path opacity="0.2" d="M303.508 60.0425C304.187 60.0425 304.738 59.4938 304.738 58.8169C304.738 58.1401 304.187 57.5914 303.508 57.5914C302.83 57.5914 302.279 58.1401 302.279 58.8169C302.279 59.4938 302.83 60.0425 303.508 60.0425Z" fill="black"/>
<path d="M304.108 58.1865C304.108 58.8644 303.556 59.412 302.878 59.412C302.199 59.412 301.649 58.862 301.649 58.1865C301.649 57.5109 302.201 56.9609 302.878 56.9609C303.556 56.9609 304.108 57.5085 304.108 58.1865Z" fill="#F6F6F6"/>
<path opacity="0.2" d="M303.508 53.3175C304.187 53.3175 304.738 52.7688 304.738 52.092C304.738 51.4151 304.187 50.8665 303.508 50.8665C302.83 50.8665 302.279 51.4151 302.279 52.092C302.279 52.7688 302.83 53.3175 303.508 53.3175Z" fill="black"/>
<path d="M302.878 52.687C303.557 52.687 304.108 52.1383 304.108 51.4615C304.108 50.7846 303.557 50.236 302.878 50.236C302.2 50.236 301.649 50.7846 301.649 51.4615C301.649 52.1383 302.2 52.687 302.878 52.687Z" fill="#F6F6F6"/>
<path d="M313.248 61.0239V36.2147" stroke="#1FA2FC" stroke-width="0.7176" stroke-miterlimit="10"/>
<path opacity="0.2" d="M313.734 56.9609C314.255 56.9609 314.678 56.4122 314.678 55.7354C314.678 55.0586 314.255 54.5099 313.734 54.5099C313.213 54.5099 312.79 55.0586 312.79 55.7354C312.79 56.4122 313.213 56.9609 313.734 56.9609Z" fill="black"/>
<path d="M313.248 56.1194C313.77 56.1194 314.192 55.5707 314.192 54.8939C314.192 54.217 313.77 53.6683 313.248 53.6683C312.727 53.6683 312.305 54.217 312.305 54.8939C312.305 55.5707 312.727 56.1194 313.248 56.1194Z" fill="#86CDFD"/>
<path opacity="0.2" d="M313.734 60.0425C314.255 60.0425 314.678 59.4938 314.678 58.8169C314.678 58.1401 314.255 57.5914 313.734 57.5914C313.213 57.5914 312.79 58.1401 312.79 58.8169C312.79 59.4938 313.213 60.0425 313.734 60.0425Z" fill="black"/>
<path d="M313.248 59.412C313.77 59.412 314.192 58.8633 314.192 58.1865C314.192 57.5096 313.77 56.9609 313.248 56.9609C312.727 56.9609 312.305 57.5096 312.305 58.1865C312.305 58.8633 312.727 59.412 313.248 59.412Z" fill="#F6F6F6"/>
<path opacity="0.2" d="M313.734 53.3175C314.255 53.3175 314.678 52.7688 314.678 52.092C314.678 51.4151 314.255 50.8665 313.734 50.8665C313.213 50.8665 312.79 51.4151 312.79 52.092C312.79 52.7688 313.213 53.3175 313.734 53.3175Z" fill="black"/>
<path d="M313.248 52.687C313.77 52.687 314.192 52.1383 314.192 51.4615C314.192 50.7846 313.77 50.236 313.248 50.236C312.727 50.236 312.305 50.7846 312.305 51.4615C312.305 52.1383 312.727 52.687 313.248 52.687Z" fill="#F6F6F6"/>
<path d="M287.458 61.0239H306.461L307.431 62.5173H286.488L287.458 61.0239Z" fill="#3C3C3B"/>
<path d="M310.985 61.0239H317.019L317.328 62.5173H310.679L310.985 61.0239Z" fill="#3C3C3B"/>
<path d="M306.461 36.6984H287.458L286.488 35.2026H307.431L306.461 36.6984Z" fill="#3C3C3B"/>
<path d="M317.247 36.6984H310.997L310.679 35.2026H317.566L317.247 36.6984Z" fill="#3C3C3B"/>
<path d="M302.236 32.6236H307.131C307.295 32.6236 307.431 32.4908 307.431 32.3249V31.6469C307.431 31.4834 307.297 31.3483 307.131 31.3483H302.236C302.072 31.3483 301.937 31.481 301.937 31.6469V32.3249C301.939 32.4908 302.072 32.6236 302.236 32.6236Z" fill="#0064A7"/>
<path d="M294.175 32.6236H299.07C299.234 32.6236 299.369 32.4908 299.369 32.3249V31.6469C299.369 31.4834 299.236 31.3483 299.07 31.3483H294.175C294.011 31.3483 293.875 31.481 293.875 31.6469V32.3249C293.877 32.4908 294.011 32.6236 294.175 32.6236Z" fill="#278FD0"/>
<path d="M311.744 32.6236H316.639C316.803 32.6236 316.938 32.4908 316.938 32.3249V31.6469C316.938 31.4834 316.805 31.3483 316.639 31.3483H311.744C311.58 31.3483 311.444 31.481 311.444 31.6469V32.3249C311.444 32.4908 311.58 32.6236 311.744 32.6236Z" fill="#278FD0"/>
<path d="M286.113 32.6236H291.008C291.172 32.6236 291.308 32.4908 291.308 32.3249V31.6469C291.308 31.4834 291.174 31.3483 291.008 31.3483H286.113C285.949 31.3483 285.813 31.481 285.813 31.6469V32.3249C285.816 32.4908 285.949 32.6236 286.113 32.6236Z" fill="#0064A7"/>
<path d="M283.393 63.7831H320.022L321.893 65.7316H281.522L283.393 63.7831Z" fill="#3C3C3B"/>
<path d="M482.346 126.309H449.471C430.065 126.309 411.754 147.631 410.968 171.146L408.815 235.465C408.186 254.205 419.1 267.986 434.565 267.986H450.534C466 267.986 481.452 254.211 487.01 235.465L506.064 171.146C513.031 147.631 501.752 126.309 482.346 126.309Z" fill="#0C3B58"/>
<path opacity="0.5" d="M478.053 235.465L497.106 171.146C504.074 147.631 492.788 126.309 473.383 126.309H482.346C501.752 126.309 513.031 147.631 506.07 171.146L487.017 235.465C481.465 254.205 466.012 267.986 450.54 267.986H441.577C457.049 267.986 472.502 254.211 478.053 235.465Z" fill="#3C3C3B"/>
<path opacity="0.5" d="M503.395 79.5353H494.249C499.341 79.5353 503.477 83.6577 503.477 88.7479V111.993C503.477 117.077 499.347 121.206 494.249 121.206H503.395C508.487 121.206 512.622 117.083 512.622 111.993V88.7479C512.622 83.6639 508.487 79.5353 503.395 79.5353Z" fill="#3C3C3B"/>
<path d="M432.828 93.5353C432.828 85.8033 439.096 79.5353 446.828 79.5353H506.429C509.846 79.5353 512.622 82.3065 512.622 85.7188V115.022C512.622 118.434 509.846 121.206 506.429 121.206H446.828C439.096 121.206 432.828 114.938 432.828 107.206V93.5353Z" fill="#0C3B58"/>
<path d="M377.219 229.078C377.219 222.057 388.589 207.08 388.589 189.763C399.76 183.522 425.453 170.292 438.858 167.297C455.614 163.553 474.764 168.701 475.961 175.721C477.158 182.742 466.984 226.269 461.598 234.694C456.212 243.119 426.889 242.183 409.534 240.779C392.18 239.374 377.219 236.098 377.219 229.078Z" fill="#3C3C3B"/>
<path opacity="0.05" d="M426.905 159.043C393.066 159.043 365.633 131.655 365.633 97.8705C365.633 64.0859 393.066 36.6982 426.905 36.6982C460.744 36.6982 488.177 64.0859 488.177 97.8705C488.177 131.655 460.744 159.043 426.905 159.043Z" fill="#D9EFFE"/>
<path fill-rule="evenodd" clip-rule="evenodd" d="M432.235 103.594C438.56 89.6526 438.38 78.3692 435.327 72.4327C435.23 72.2278 435.121 72.0304 435.003 71.8412L434.994 71.8246L434.993 71.8252C434.437 70.9406 433.661 70.2385 432.686 69.8133C431.711 69.3876 430.649 69.2876 429.591 69.4679C429.958 66.4431 428.758 63.6807 426.339 62.6224C425.09 62.0773 423.699 62.0664 422.355 62.4939C421.85 59.9689 420.403 57.8931 418.17 56.9171C416.085 56.006 413.703 56.2224 411.52 57.3101C410.819 55.4582 409.536 53.9763 407.752 53.1964C405.063 52.0214 401.879 52.7214 399.266 54.7475C397.822 55.7647 396.607 57.0967 395.68 58.6004C394.767 60.124 394.091 61.8088 393.814 63.5947C393.554 65.3748 393.632 67.2533 394.311 69.0393C394.659 69.9207 395.116 70.7962 395.79 71.5484C395.872 71.6414 395.957 71.7328 396.044 71.8225C393.492 72.7799 391.123 74.1023 389.013 75.7294C387.373 76.2189 385.907 77.3524 385.484 79.0076C382.035 82.8624 379.755 87.7398 379.22 93.1909L379.219 93.1934C378.713 96.617 379.001 100.177 380.012 103.533C381.754 109.262 385.413 113.995 390.112 117.288C389.882 117.602 389.761 117.927 389.761 118.26C389.761 118.269 389.761 118.279 389.762 118.289C389.762 118.299 389.762 118.31 389.763 118.321L389.674 118.26C389.674 118.26 387.705 120.478 386.796 122.938C386.408 123.988 386.351 124.865 386.413 125.525C380.691 127.54 367.798 133.553 357.579 149.142H349.728C348.722 149.142 347.91 149.952 347.91 150.957H347.915L351.574 160.31C350.744 162.215 349.957 164.22 349.223 166.328L335.728 202.665C335.728 202.665 333.443 213.285 345.65 214.323C352.679 214.921 359.808 207.051 364.589 200.268H407.13H452.131L452.121 200.053C455.127 204.727 459.07 209.024 463.657 212.042C465.74 213.7 468.076 214.998 470.288 214.998C478.162 214.993 483.159 206.153 479.614 201.833L466.428 166.328C465.198 162.795 463.821 159.554 462.337 156.582L464.538 150.957H464.533C464.533 149.952 463.716 149.142 462.715 149.142H458.072C447.539 133.074 434.165 127.179 428.731 125.351C428.768 124.714 428.69 123.898 428.335 122.938C427.426 120.478 425.458 118.26 425.458 118.26L425.453 118.263L425.453 118.26C425.453 117.539 424.887 116.855 423.87 116.238C427.847 112.969 430.852 108.523 432.235 103.594Z" fill="black" fill-opacity="0.05"/>
<path d="M410.416 124.637C410.416 124.637 382.755 130.072 370.257 163.641L356.762 197.636C356.762 197.636 354.477 207.571 366.684 208.542C378.891 209.514 398.896 189.659 398.896 189.659L403.207 148.402L410.416 124.637Z" fill="#3C3C3B"/>
<path d="M447.304 124.637C447.304 124.637 474.965 130.447 487.463 166.328L500.958 202.665C500.958 202.665 501.4 213.6 489.315 211.586C483.341 210.591 466.326 190.871 466.326 190.871L454.513 150.045L447.304 124.637Z" fill="#3C3C3B"/>
<path d="M427.983 119.288C454.631 119.288 470.156 140.775 473.104 200.512H427.983H382.861C385.81 140.775 401.334 119.288 427.983 119.288Z" fill="#3C3C3B"/>
<path d="M428.924 181.199C428.924 181.194 422.108 165.474 422.716 155.34C423.324 145.211 427.183 130.442 427.183 130.442H428.924H430.664C430.664 130.442 434.529 145.211 435.132 155.34C435.739 165.469 428.924 181.194 428.924 181.199Z" fill="#D64C88"/>
<path d="M410.795 118.26C410.795 120.968 418.787 127.666 428.641 127.666C438.499 127.666 446.486 120.968 446.486 118.26C446.486 115.551 438.494 113.358 428.641 113.358C418.787 113.358 410.795 115.551 410.795 118.26Z" fill="#3C3C3B"/>
<path d="M440.683 131.752L443.157 125.288L437.606 122.065L432.273 124.555L431.942 129.481L440.683 131.752Z" fill="#3C3C3B"/>
<path d="M446.492 118.26C446.492 118.26 448.46 120.478 449.369 122.938C450.278 125.399 449.369 126.908 449.369 126.908C449.369 126.908 446.049 131.412 440.687 131.752C442.705 125.21 437.605 122.065 437.605 122.065C437.605 122.065 441.037 122.011 446.492 118.26Z" fill="#278FD0"/>
<path d="M416.512 131.752L414.038 125.288L419.594 122.065L424.927 124.555L425.258 129.481L416.512 131.752Z" fill="#3C3C3B"/>
<path d="M410.708 118.26C410.708 118.26 408.739 120.478 407.83 122.939C406.921 125.399 407.83 126.909 407.83 126.909C407.83 126.909 411.151 131.413 416.513 131.752C414.495 125.21 419.595 122.065 419.595 122.065C419.595 122.065 416.163 122.011 410.708 118.26Z" fill="#278FD0"/>
<path d="M424.173 126.608C424.378 123.196 428.918 122.953 428.918 122.953C428.918 122.953 433.463 123.196 433.663 126.608C433.857 129.913 433.108 131.495 428.918 131.495C424.732 131.5 423.979 129.918 424.173 126.608Z" fill="#D64C88"/>
<path d="M470.004 192.429C473.883 201.228 481.292 210.086 490.465 213.556C481.899 208.421 475.516 200.607 470.004 192.429Z" fill="#3C3C3B"/>
<path d="M431.89 66.1998C429.364 71.555 423.887 74.4003 419.657 72.5544C415.427 70.7086 414.045 64.8722 416.571 59.5198C419.098 54.1646 424.575 51.3193 428.805 53.1652C433.035 55.0111 434.416 60.8475 431.89 66.1998Z" fill="#0064A7"/>
<path d="M419.226 73.4209C418.291 72.9529 417.471 72.3098 416.811 71.5586C416.142 70.8086 415.689 69.9343 415.346 69.0537C414.674 67.2692 414.601 65.3898 414.865 63.6076C415.145 61.8195 415.823 60.1311 416.735 58.6031C417.67 57.082 418.896 55.7346 420.352 54.708C419.002 55.8655 417.942 57.2932 417.187 58.8356C416.456 60.3883 415.977 62.0459 415.885 63.7164C415.801 65.3794 416.053 67.0573 416.768 68.5013C417.133 69.2099 417.567 69.8875 418.141 70.4121C418.709 70.9413 419.36 71.3541 420.068 71.6338L419.226 73.4209Z" fill="#3C3C3B"/>
<path d="M442.309 69.9207C439.782 75.2759 434.305 78.1212 430.075 76.2753C425.845 74.4294 424.464 68.5931 426.99 63.2407C429.516 57.8855 434.993 55.0402 439.223 56.8861C443.451 58.7314 444.835 64.5683 442.309 69.9207Z" fill="#0064A7"/>
<path d="M429.641 77.1411C428.706 76.6731 427.886 76.03 427.226 75.2788C426.557 74.5288 426.104 73.6545 425.761 72.7739C425.089 70.9894 425.016 69.11 425.28 67.3278C425.56 65.5397 426.238 63.8512 427.151 62.3232C428.085 60.8022 429.31 59.4576 430.767 58.4282C429.417 59.5857 428.357 61.0134 427.602 62.5558C426.871 64.1085 426.392 65.766 426.3 67.4365C426.216 69.0995 426.468 70.7774 427.183 72.2214C427.548 72.9301 427.982 73.6077 428.557 74.1323C429.124 74.6615 429.775 75.0743 430.483 75.354L429.641 77.1411Z" fill="#3C3C3B"/>
<path d="M449.722 72.4622C447.811 76.5116 443.666 78.6644 440.466 77.2698C437.266 75.8753 436.22 71.4587 438.132 67.4064C440.043 63.3542 444.187 61.2043 447.387 62.5988C450.586 63.9963 451.633 68.4099 449.722 72.4622Z" fill="#0064A7"/>
<path d="M440.141 77.9226C439.433 77.5695 438.813 77.0835 438.314 76.5142C437.809 75.9467 437.468 75.2862 437.206 74.6199C436.697 73.2696 436.642 71.8477 436.842 70.4988C437.054 69.1465 437.567 67.8699 438.258 66.7112C438.965 65.5613 439.892 64.5427 440.996 63.7645C439.973 64.6396 439.171 65.7193 438.601 66.8856C438.047 68.0607 437.687 69.3156 437.615 70.5766C437.551 71.8362 437.74 73.1043 438.283 74.1972C438.558 74.734 438.886 75.2457 439.322 75.6422C439.75 76.0433 440.245 76.3542 440.777 76.5662L440.141 77.9226Z" fill="#3C3C3B"/>
<path d="M456.069 79.6531C454.159 83.7025 450.014 85.8553 446.814 84.4607C443.614 83.0661 442.568 78.6496 444.479 74.5973C446.39 70.5451 450.535 68.3952 453.735 69.7898C456.934 71.1843 457.98 75.6009 456.069 79.6531Z" fill="#0064A7"/>
<path d="M446.488 85.1135C445.779 84.7604 445.16 84.2744 444.661 83.7051C444.156 83.1376 443.814 82.4771 443.553 81.8108C443.044 80.4605 442.989 79.0385 443.189 77.6897C443.401 76.3373 443.913 75.0608 444.605 73.9021C445.312 72.7522 446.239 71.7336 447.343 70.9554C446.32 71.8305 445.518 72.9102 444.948 74.0766C444.393 75.2516 444.033 76.5065 443.961 77.7675C443.898 79.0271 444.087 80.2952 444.63 81.3881C444.904 81.925 445.233 82.4366 445.668 82.8331C446.097 83.2342 446.592 83.5451 447.123 83.7572L446.488 85.1135Z" fill="#3C3C3B"/>
<path d="M456.051 71.8076C459.557 77.8335 459.821 90.3033 452.207 105.783L449.21 88.8812L449.983 81.129L456.051 71.8076Z" fill="#0064A7"/>
<path d="M454.029 98.4396C452.599 112.648 439.413 123.007 424.58 121.581C409.747 120.154 398.883 107.479 400.313 93.2705C401.743 79.0622 414.929 68.7029 429.762 70.1296C444.595 71.5563 455.462 84.2319 454.029 98.4396Z" fill="url(#paint1_radial_1327_34863)"/>
<path d="M424.647 121.575C434.481 122.522 443.585 118.283 449.027 111.183C451.181 106.912 449.804 101.942 445.161 101.496C440.059 101.005 436.706 106.754 435.612 111.077C434.537 115.319 432.776 119.979 422 121.195C422.864 121.357 423.749 121.488 424.647 121.575Z" fill="#3C3C3B"/>
<path d="M454.087 98.3604C450.564 121.068 422.024 128.509 407.002 112.035C402.391 106.996 399.907 100.116 400.321 93.2138C399.804 96.6577 400.08 100.236 401.081 103.607C404.632 115.452 416.319 123.018 428.502 122.432C430.702 122.296 432.947 121.995 435.059 121.348C435.419 121.229 435.985 121.095 436.332 120.95C437.54 120.517 438.875 119.986 440.005 119.382C447.894 115.419 453.675 107.249 454.087 98.3604Z" fill="#3C3C3B"/>
<path d="M422.331 85.9537C422.307 87.7975 423.514 89.5472 425.118 90.4109C426.344 91.0488 427.752 91.2172 429.112 91.0353C430.663 90.6825 430.712 90.7004 429.11 90.5375C425.988 90.1298 423.751 88.8935 422.331 85.9537Z" fill="#3C3C3B"/>
<path d="M412.939 83.0348C410.915 84.2738 408.522 84.9617 406.277 84.0736C405.542 83.8114 404.828 83.4382 404.079 83.032C406.174 86.2856 410.828 86.3032 412.939 83.0348Z" fill="#3C3C3B"/>
<path d="M435.932 89.068C436.566 87.8949 436.661 86.4844 436.525 85.1809C436.048 81.2516 433.272 77.7421 429.659 76.2245C430.761 78.0877 432.053 79.7485 433.12 81.611C434.459 83.9637 435.476 86.3214 435.932 89.068Z" fill="#3C3C3B"/>
<path d="M406.457 79.3106C408.453 78.3358 410.481 77.6787 412.555 77.0503C413.307 76.8012 414.037 76.6095 414.794 76.2409C414.07 75.7841 413.259 75.5405 412.413 75.4667C409.953 75.2452 406.929 76.6767 406.457 79.3106Z" fill="#3C3C3B"/>
<path d="M411.919 92.7087C408.668 93.0529 406.919 89.436 409.708 87.408C408.918 87.4762 408.135 88.0003 407.714 88.7732C406.271 91.4195 409.435 94.3708 411.919 92.7087Z" fill="#3C3C3B"/>
<path d="M412.693 95.7611C416.664 101.069 425.329 101.864 429.921 96.8403C423.477 99.0377 418.828 98.495 412.693 95.7611Z" fill="#3C3C3B"/>
<path d="M339.678 145.247C342.864 143.054 347.187 143.216 350.314 145.373C351.014 146.939 351.243 148.733 350.843 150.511C349.824 155.008 345.299 157.806 340.726 156.78C339.173 156.44 337.84 155.681 336.742 154.679C335.383 151.292 336.471 147.435 339.678 145.247Z" fill="black"/>
<path d="M372.573 173.994L347.411 143.966C345.869 142.303 342.532 144.74 340.694 146.125C339.103 147.335 335.805 151.338 336.728 152.942L357.458 183.277C359.683 187.327 365.19 188.888 369.709 186.777C374.228 184.665 376.052 179.617 373.827 175.566C373.378 175.015 372.995 174.454 372.573 173.994Z" fill="#1FA2FC"/>
<path d="M347.724 165.753C348.442 167.538 349.21 169.289 349.995 171.064L352.763 176.133L355.532 181.201C355.995 182.057 356.437 182.91 356.992 183.737C357.493 184.621 358.207 185.41 359.026 186.087C360.706 187.446 362.898 188.22 365.087 188.235C367.337 188.281 369.602 187.594 371.382 186.308C373.134 185.06 374.468 183.201 374.971 181.249C375.267 179.241 374.856 177.182 373.711 175.607C374.429 177.393 374.471 179.327 373.835 181.04C373.388 182.785 372.206 184.387 370.669 185.519C369.093 186.623 367.078 187.243 365.128 187.224C363.139 187.177 361.232 186.516 359.763 185.321C358.993 184.739 358.41 184.08 357.94 183.266C357.448 182.449 357.006 181.596 356.539 180.761L353.771 175.693L351.003 170.624C349.96 168.958 348.907 167.355 347.724 165.753Z" fill="#3C3C3B"/>
<path d="M352.748 185.793L337.118 155.401C337.005 155.166 336.891 154.931 336.782 154.674C337.855 155.673 339.211 156.415 340.759 156.776C345.326 157.804 349.875 154.991 350.874 150.515C351.279 148.716 351.05 146.944 350.352 145.377C351.076 145.864 351.736 146.471 352.295 147.169L374.083 174.209C374.567 174.83 375.059 175.539 375.417 176.27C378.46 182.188 375.841 189.11 369.586 191.731C363.327 194.373 355.771 191.708 352.748 185.793Z" fill="#3C3C3B"/>
<path d="M347.388 143.079C347.153 138.444 345.93 135.056 342.103 132.567C338.298 130.08 337.748 128.017 337.637 127.24C337.415 125.556 332.73 125.377 333.948 129.717C334.789 132.651 338.414 134.913 336.95 137.731C336.188 139.189 338.264 137.534 339.351 139.641C340.437 141.748 342.196 143.467 343.143 144.315C344.089 145.163 347.388 143.079 347.388 143.079Z" fill="#1FA2FC"/>
<path d="M335.534 140.066L322.065 128.306C321.171 127.532 319.853 127.62 319.082 128.47C318.33 129.344 318.417 130.659 319.311 131.434L334.186 144.42L335.534 140.066Z" fill="#1FA2FC"/>
<path d="M330.994 139.913L316.478 129.479C315.525 128.803 314.157 129.057 313.45 130.047C312.719 131.055 312.909 132.408 313.859 133.105L329.889 144.632L330.994 139.913Z" fill="#1FA2FC"/>
<path d="M332.098 144.212L316.803 134.931C315.797 134.312 314.51 134.6 313.916 135.565C313.322 136.531 313.677 137.803 314.666 138.397L331.56 148.655L332.098 144.212Z" fill="#1FA2FC"/>
<path d="M332.426 148.992L320.371 141.692C319.58 141.216 318.505 141.539 317.967 142.427C317.429 143.315 317.64 144.411 318.431 144.887L331.75 152.957L332.426 148.992Z" fill="#1FA2FC"/>
<path d="M328.601 133.986C325.084 139.634 325.186 149.949 331.03 152.595C336.895 155.244 343.87 152.48 346.628 146.426C349.387 140.372 345.67 133.261 339.55 135.189C332.49 137.418 328.745 133.771 328.601 133.986Z" fill="#1FA2FC"/>
<path d="M498.452 197.914C492.857 191.11 484.282 180.913 480.952 176.831C477.622 172.749 472.877 170.784 470.476 175.472C468.074 180.161 464.744 184.393 466.713 188.324C468.682 192.255 474.666 199.589 476.635 202.083C478.604 204.578 484.175 211.082 489.128 211.082C497.004 211.077 502.001 202.234 498.452 197.914Z" fill="#575756"/>
<path d="M470.476 175.468C472.877 170.779 477.617 172.745 480.952 176.826C480.957 176.831 480.957 176.831 480.961 176.836C481.574 177.584 481.885 178.53 481.851 179.496C481.832 180.015 481.798 180.564 481.763 181.161C481.418 186.936 475.351 191.896 470.305 190.989C469.119 190.775 468.239 190.358 467.578 189.848C467.243 189.3 466.951 188.785 466.718 188.314C464.744 184.388 468.074 180.156 470.476 175.468Z" fill="#3C3C3B"/>
<path opacity="0.2" d="M498.555 111.188L483.085 147.079H367.058L356.229 111.188H498.555Z" fill="url(#paint2_linear_1327_34863)"/>
<path d="M482.795 175.868C481.593 171.341 479.677 168.25 475.375 166.585C471.095 164.919 470.12 162.996 469.848 162.252C469.276 160.635 464.609 161.429 466.72 165.461C468.165 168.184 472.22 169.666 471.363 172.751C470.915 174.349 472.62 172.284 474.134 174.139C475.649 175.995 477.746 177.327 478.859 177.968C479.971 178.61 482.795 175.868 482.795 175.868Z" fill="#1FA2FC"/>
<path d="M387.066 190.353H463.058C465.099 190.353 466.942 189.052 467.725 187.053L483.378 147.041H366.756L382.409 187.053C383.182 189.052 385.024 190.353 387.066 190.353Z" fill="#1FA2FC"/>
<path d="M368.569 145.226H481.555C482.556 145.226 483.373 146.037 483.373 147.041H366.751C366.751 146.037 367.563 145.226 368.569 145.226Z" fill="#11588A"/>
<path d="M388.919 187.596H461.206C463.151 187.596 464.872 186.422 465.567 184.626L477.778 153.03C478.415 151.38 477.21 149.521 475.508 149.521H374.617C372.916 149.521 371.71 151.38 372.347 153.03L384.558 184.626C385.249 186.422 386.974 187.596 388.919 187.596Z" fill="#8DD0FD"/>
<path d="M462.571 190.324C438.172 189.732 413.492 189.727 389.098 190.324C413.497 190.921 438.172 190.916 462.571 190.324Z" fill="#3C3C3B"/>
<path d="M473.373 177.046L457.61 168.23C456.565 167.651 455.281 168.012 454.699 169.01C454.139 170.029 454.5 171.309 455.545 171.888L472.954 181.624L473.373 177.046Z" fill="#1FA2FC"/>
<path d="M468.591 178.757L452.073 171.466C450.99 170.996 449.693 171.53 449.202 172.654C448.691 173.801 449.162 175.097 450.246 175.588L468.489 183.644L468.591 178.757Z" fill="#1FA2FC"/>
<path d="M469.102 183.438L452.057 177.446C450.934 177.043 449.724 177.594 449.34 178.67C448.956 179.746 449.573 180.928 450.674 181.31L469.502 187.935L469.102 183.438Z" fill="#1FA2FC"/>
<path d="M469.663 188.08L456.231 183.372C455.351 183.066 454.357 183.608 454.012 184.595C453.667 185.583 454.105 186.622 454.985 186.928L469.827 192.134L469.663 188.08Z" fill="#1FA2FC"/>
<path d="M465.062 173.789C460.539 182.502 462.719 190.534 469.043 191.934C475.39 193.332 481.698 189.158 483.154 182.611C484.61 176.064 479.45 169.815 473.81 172.987C468.886 174.958 467.488 174.551 465.062 173.789Z" fill="#1FA2FC"/>
<path d="M341.945 199.984H484.44C485.477 199.984 486.314 201.268 486.314 202.857V214.297C486.314 215.886 485.477 217.17 484.44 217.17H341.945C340.909 217.17 340.071 215.886 340.071 214.297V202.857C340.071 201.268 340.909 199.984 341.945 199.984Z" fill="#278FD0"/>
<path d="M218.97 199.984H345.238C346.216 199.984 347.004 201.192 347.004 202.692V214.462C347.004 215.962 346.216 217.17 345.238 217.17H218.97C217.992 217.17 217.204 215.962 217.204 214.462V202.692C217.204 201.192 217.992 199.984 218.97 199.984Z" fill="#0064A7"/>
<path d="M265.96 95.0157C250.132 91.0731 234.217 100.195 230.419 115.391C226.62 130.586 236.377 146.104 252.206 150.046C268.034 153.989 283.949 144.866 287.747 129.671C291.546 114.476 281.789 98.9584 265.96 95.0157Z" fill="url(#paint3_radial_1327_34863)"/>
<path d="M274.965 124.968C275.575 129.177 280.207 132.309 284.326 130.914C280.029 130.149 277.58 128.404 274.965 124.968Z" fill="#3C3C3B"/>
<path d="M252.195 150.1C241.695 147.486 233.856 139.789 230.898 130.462C230.273 125.288 233.527 120.63 238.505 121.872C243.973 123.233 245.261 130.414 244.803 135.265C244.361 140.063 244.399 145.485 255.066 150.708C254.064 150.509 253.121 150.331 252.195 150.1Z" fill="#3C3C3B"/>
<path d="M230.364 115.38C229.292 118.962 229.044 122.749 229.507 126.487C230.025 130.241 231.312 133.91 233.338 137.202C233.586 137.6 233.823 138.046 234.141 138.406C234.442 138.815 234.696 139.213 234.997 139.622C235.617 140.391 236.188 141.144 236.872 141.876C237.508 142.591 238.262 143.28 238.968 143.957C239.35 144.275 239.738 144.597 240.121 144.915C240.503 145.232 240.891 145.555 241.29 145.818C244.479 148.174 248.191 149.826 252.006 150.832C255.89 151.8 259.904 152.015 263.826 151.434C267.748 150.848 271.503 149.551 274.838 147.593C278.173 145.636 281.055 142.952 283.275 139.875C285.441 136.787 287.014 133.275 287.741 129.666C285.602 136.83 280.657 142.903 274.132 146.469C267.646 150.1 259.678 151.068 252.404 149.255C245.061 147.48 238.548 142.849 234.534 136.605C233.521 135.072 232.659 133.404 231.991 131.678C231.808 131.242 231.63 130.806 231.501 130.387L231.081 129.053C230.784 128.144 230.601 127.262 230.412 126.374C229.604 122.835 229.68 119.059 230.364 115.38Z" fill="#3C3C3B"/>
<ellipse cx="281.748" cy="117.763" rx="1.96918" ry="3.56748" transform="rotate(-12.3636 281.748 117.763)" fill="#3C3C3B"/>
<path fill-rule="evenodd" clip-rule="evenodd" d="M272.703 77.8588C270.751 78.1172 269.047 79.1486 267.746 80.6919C265.79 78.642 263.248 77.5358 260.635 77.8815C258.198 78.2041 256.149 79.7312 254.786 81.955C253.45 80.9146 251.866 80.3977 250.246 80.6126C247.498 80.9774 245.399 83.351 244.686 86.4776C243.564 85.8493 242.318 85.5692 241.051 85.7375C239.71 85.9155 238.524 86.5717 237.577 87.5604C231.984 92.8787 227.511 105.461 229.588 123.609C229.588 123.609 236.146 144.461 244.686 147.731C253.227 151.001 263.223 149.911 263.223 149.911C255.386 120.479 266.319 102.392 275.794 101.138C280.802 100.476 284.171 94.7269 283.317 88.2985C282.464 81.87 277.712 77.196 272.703 77.8588Z" fill="#363F45"/>
<path d="M320.754 217.811L362.182 223.928C364.626 224.331 367.537 221.62 368.684 217.87C369.727 214.476 364.702 209.85 362.736 208.998L327.126 196.105C323.203 194.396 318.332 195.41 315.675 201.797C313.024 208.185 315.68 215.756 319.597 217.464C319.961 217.622 320.372 217.742 320.754 217.811Z" fill="#1FA2FC"/>
<path d="M365.004 206.696C369.364 204.948 372.996 204.631 376.904 207.071C380.801 209.494 382.93 209.123 383.691 208.896C385.334 208.385 387.482 212.588 382.976 213.314C379.922 213.788 376.309 211.435 374.338 213.966C373.32 215.279 373.963 212.682 371.566 212.582C369.169 212.481 366.844 211.602 365.664 211.097C364.483 210.592 365.004 206.696 365.004 206.696Z" fill="#1FA2FC"/>
<path d="M305.075 215.427C288.662 209.058 278.359 179.79 278.533 171.38C277.547 161.046 281.395 145.152 291.325 153.256C296.084 157.366 309.472 174.39 313.364 179.336C318.142 185.407 321.815 191.37 326.342 196.704C328.295 199.294 328.764 203.606 328.764 203.606C329.986 212.192 322.21 219.341 313.752 217.409L305.075 215.427Z" fill="#FFFFFB"/>
<path opacity="0.5" d="M200.982 113.081H208.811C204.452 113.081 200.912 116.61 200.912 120.967V140.863C200.912 145.214 204.447 148.748 208.811 148.748H200.982C196.624 148.748 193.084 145.22 193.084 140.863V120.967C193.084 116.615 196.624 113.081 200.982 113.081Z" fill="#3C3C3B"/>
<path d="M298.61 219.259C298.927 241.92 306.195 246.884 298.61 255.028C291.024 263.177 280.346 262.72 263.521 258.083C246.426 253.377 239.778 255.308 238.495 234.137C236.917 208.044 219.952 192.671 222.478 167.079C223.836 153.304 240.451 147.71 245.289 146.812C255.121 144.988 263.1 143.095 272.927 144.682C277.544 145.429 282.043 146.828 286.051 149.259C303.428 167.079 298.178 189.008 298.61 219.259Z" fill="#FFFFFB"/>
<path d="M261.382 127.081C261.382 119.349 255.114 113.081 247.382 113.081H198.385C195.46 113.081 193.084 115.453 193.084 118.374V143.455C193.084 146.376 195.46 148.748 198.385 148.748H247.382C255.114 148.748 261.382 142.48 261.382 134.748V127.081Z" fill="#0C3B58"/>
<path d="M218.999 153.116H247.138C263.748 153.116 279.42 171.366 280.093 191.493L281.936 246.545C282.475 262.585 273.133 274.381 259.895 274.381H246.227C232.99 274.381 219.764 262.59 215.007 246.545L198.698 191.493C192.734 171.366 202.389 153.116 218.999 153.116Z" fill="#0C3B58"/>
<path opacity="0.5" d="M222.673 246.545L206.365 191.493C200.401 171.366 210.061 153.116 226.67 153.116H218.998C202.389 153.116 192.734 171.366 198.693 191.493L215.001 246.545C219.753 262.585 232.979 274.381 246.222 274.381H253.894C240.651 274.381 227.425 262.59 222.673 246.545Z" fill="#3C3C3B"/>
</g>
<path d="M687.5 196H0.5V204H687.5V196Z" fill="#003F69" mask="url(#path-1-outside-1_1327_34863)"/>
<defs>
<linearGradient id="paint0_linear_1327_34863" x1="359.262" y1="9.37522e-07" x2="357.538" y2="199.994" gradientUnits="userSpaceOnUse">
<stop stop-color="#0F82D0"/>
<stop offset="1" stop-color="#013F69"/>
</linearGradient>
<radialGradient id="paint1_radial_1327_34863" cx="0" cy="0" r="1" gradientUnits="userSpaceOnUse" gradientTransform="translate(422.486 80.8376) rotate(5.50102) scale(43.8996 42.0693)">
<stop stop-color="#86CDFD"/>
<stop offset="0.4193" stop-color="#1FA2FC"/>
<stop offset="1" stop-color="#004B7D"/>
</radialGradient>
<linearGradient id="paint2_linear_1327_34863" x1="427.392" y1="147.079" x2="427.392" y2="111.188" gradientUnits="userSpaceOnUse">
<stop stop-color="white"/>
<stop offset="0.81" stop-color="white" stop-opacity="0"/>
</linearGradient>
<radialGradient id="paint3_radial_1327_34863" cx="0" cy="0" r="1" gradientUnits="userSpaceOnUse" gradientTransform="translate(269.52 108.915) rotate(-166.012) scale(48.0873 46.1668)">
<stop stop-color="#86CDFD"/>
<stop offset="0.4193" stop-color="#1FA2FC"/>
<stop offset="1" stop-color="#004B7D"/>
</radialGradient>
<clipPath id="clip0_1327_34863">
<path d="M0.5 0H687.5V200H0.5V0Z" fill="white"/>
</clipPath>
</defs>
</svg>
