<svg width="268" height="79" viewBox="0 0 268 79" fill="none" xmlns="http://www.w3.org/2000/svg">
                <g filter="url(#filter0_dd_1353_35244)">
                    <path
                        d="M55.9991 35.7553L47.2242 37.1677C46.8456 37.2157 46.515 36.9813 46.4669 36.6027L45.1928 28.7233C45.1447 28.3446 45.379 28.0141 45.7577 27.966L54.5326 26.5536C54.9112 26.5055 55.2418 26.7399 55.2899 27.1185L56.5641 34.998C56.6121 35.3766 56.3778 35.7072 55.9991 35.7553Z"
                        fill="#0165A8" />
                    <path
                        d="M45.4265 44.392L36.7477 45.8044C36.369 45.8525 35.9904 45.6181 35.9483 45.1914L34.6742 37.4082C34.6261 37.0295 34.8605 36.6509 35.2872 36.6088L43.966 35.1964C44.3446 35.1483 44.7232 35.3827 44.7653 35.8094L46.0395 43.5927C46.0875 43.9653 45.8051 44.344 45.4265 44.392Z"
                        fill="#0165A8" />
                    <path
                        d="M43.2565 33.1168L34.4815 34.4391C34.1029 34.4871 33.7723 34.2527 33.7242 33.8741L32.5463 25.9466C32.4982 25.568 32.7326 25.2374 33.1113 25.1893L41.8862 23.8671C42.2648 23.819 42.5954 24.0534 42.6435 24.432L43.8215 32.3595C43.9176 32.7382 43.6351 33.0687 43.2565 33.1168Z"
                        fill="#238DD3" />
                    <path
                        d="M30.6174 29.6727L23.8258 30.6644C23.351 30.7125 22.9303 30.43 22.8823 29.9552L21.9867 23.8669C21.9387 23.3981 22.2211 22.9713 22.6959 22.9233L29.4875 21.9316C29.9563 21.8835 30.383 22.166 30.4311 22.6408L31.3266 28.7291C31.4168 29.1979 31.0862 29.6247 30.6174 29.6727Z"
                        fill="#1EA2FB" />
                    <path
                        d="M32.1257 39.6256L25.0035 40.8036C24.6248 40.8517 24.2943 40.6173 24.2463 40.2386L23.2064 33.8197C23.1583 33.4411 23.3928 33.1105 23.7714 33.0624L30.8935 31.9325C31.2722 31.8844 31.6027 32.1188 31.6508 32.4975L32.6906 38.9164C32.7387 39.2469 32.4562 39.5775 32.1257 39.6256Z"
                        fill="#D64C88" />
                    <path
                        d="M53.6967 33.4054L52.9814 34.3189L50.9379 32.7142L49.207 34.9199L48.1973 34.1266L49.9283 31.9208L47.8848 30.3221L48.5999 29.4086L50.6434 31.0073L52.3744 28.8015L53.3841 29.5949L51.6532 31.8006L53.6967 33.4054Z"
                        fill="white" />
                    <path
                        d="M41.3038 43.6228L40.1559 43.8031L39.7532 41.2428L36.9825 41.6755L36.7842 40.4013L39.5549 39.9686L39.1522 37.4022L40.3002 37.2219L40.7028 39.7883L43.4736 39.3555L43.6719 40.6297L40.9012 41.0625L41.3038 43.6228Z"
                        fill="white" />
                    <path d="M35.2219 29.9374L35.0537 28.6391L41.0459 27.8518L41.2142 29.15L35.2219 29.9374Z"
                        fill="white" />
                    <path d="M25.5863 37.0774L25.418 36.1098L29.8835 35.3345L30.0518 36.3021L25.5863 37.0774Z"
                        fill="white" />
                    <path
                        d="M25.5029 26.1747C25.3707 26.1928 25.2385 26.1868 25.1122 26.1507C24.986 26.1207 24.8778 26.0666 24.7756 25.9944C24.6735 25.9223 24.5894 25.8322 24.5293 25.724C24.4631 25.6158 24.421 25.4956 24.403 25.3694C24.385 25.2372 24.397 25.1109 24.4271 24.9907C24.4631 24.8705 24.5172 24.7623 24.5954 24.6662C24.6735 24.57 24.7696 24.4859 24.8778 24.4198C24.992 24.3536 25.1122 24.3116 25.2505 24.2935C25.3887 24.2755 25.5149 24.2815 25.6411 24.3176C25.7674 24.3537 25.8815 24.4077 25.9777 24.4799C26.0738 24.552 26.158 24.6421 26.2241 24.7503C26.2902 24.8585 26.3323 24.9787 26.3504 25.1049C26.3684 25.2372 26.3564 25.3634 26.3203 25.4836C26.2842 25.6038 26.2241 25.712 26.152 25.8081C26.0739 25.9043 25.9777 25.9824 25.8695 26.0485C25.7613 26.1207 25.6412 26.1567 25.5029 26.1747ZM25.4728 25.9223C25.563 25.9103 25.6472 25.8802 25.7193 25.8322C25.7914 25.7841 25.8575 25.724 25.9056 25.6519C25.9536 25.5797 25.9897 25.5016 26.0138 25.4175C26.0378 25.3333 26.0378 25.2432 26.0258 25.153C26.0138 25.0568 25.9837 24.9727 25.9356 24.8886C25.8876 24.8104 25.8334 24.7443 25.7613 24.6902C25.6892 24.6361 25.6171 24.6001 25.5329 24.576C25.4488 24.552 25.3647 24.546 25.2805 24.558C25.1904 24.57 25.1122 24.6001 25.0401 24.6481C24.968 24.6962 24.9018 24.7563 24.8538 24.8285C24.8057 24.9006 24.7697 24.9787 24.7456 25.0629C24.7216 25.147 24.7156 25.2371 24.7276 25.3273C24.7396 25.4175 24.7697 25.5016 24.8117 25.5797C24.8598 25.6579 24.9139 25.724 24.98 25.7781C25.0461 25.8322 25.1243 25.8742 25.2024 25.8983C25.2986 25.9283 25.3827 25.9343 25.4728 25.9223ZM25.0341 28.9455L26.5728 26.4753L28.0512 23.969L28.3037 24.1373L26.7771 26.6015L25.2866 29.1138L25.0341 28.9455ZM28.0873 28.7892C27.949 28.8072 27.8229 28.8012 27.6967 28.7652C27.5705 28.7291 27.4622 28.681 27.3601 28.6089C27.2579 28.5368 27.1737 28.4466 27.1136 28.3324C27.0475 28.2242 27.0055 28.104 26.9874 27.9718C26.9694 27.8396 26.9814 27.7134 27.0115 27.5932C27.0476 27.473 27.1016 27.3648 27.1797 27.2686C27.2579 27.1724 27.3541 27.0883 27.4623 27.0282C27.5765 26.9681 27.6967 26.926 27.8349 26.908C27.9671 26.89 28.0994 26.896 28.2256 26.932C28.3518 26.9621 28.4599 27.0162 28.5621 27.0943C28.6643 27.1664 28.7484 27.2566 28.8085 27.3648C28.8747 27.473 28.9167 27.5932 28.9347 27.7194C28.9528 27.8516 28.9407 27.9778 28.9107 28.098C28.8806 28.2182 28.8206 28.3324 28.7424 28.4286C28.6643 28.5247 28.5681 28.6029 28.4599 28.669C28.3457 28.7291 28.2195 28.7712 28.0873 28.7892ZM28.0512 28.5248C28.1414 28.5127 28.2256 28.4827 28.2977 28.4346C28.3698 28.3865 28.4299 28.3264 28.484 28.2603C28.5321 28.1942 28.5681 28.1161 28.5922 28.0259C28.6162 27.9357 28.6162 27.8516 28.6042 27.7554C28.5922 27.6653 28.5621 27.5811 28.5201 27.503C28.472 27.4249 28.4179 27.3588 28.3518 27.3047C28.2856 27.2506 28.2075 27.2085 28.1234 27.1845C28.0392 27.1604 27.9551 27.1544 27.8709 27.1604C27.7808 27.1724 27.6967 27.2025 27.6245 27.2506C27.5524 27.2987 27.4923 27.3588 27.4442 27.4249C27.3961 27.491 27.36 27.5751 27.336 27.6593C27.312 27.7434 27.312 27.8336 27.324 27.9237C27.3481 28.1161 27.4322 28.2723 27.5764 28.3865C27.7207 28.5007 27.8709 28.5488 28.0512 28.5248Z"
                        fill="white" />
                    <path
                        d="M28.0208 38.1114C28.3062 38.1114 28.5376 37.88 28.5376 37.5945C28.5376 37.3091 28.3062 37.0776 28.0208 37.0776C27.7353 37.0776 27.5039 37.3091 27.5039 37.5945C27.5039 37.88 27.7353 38.1114 28.0208 38.1114Z"
                        fill="white" />
                    <path
                        d="M27.4553 35.3287C27.7408 35.3287 27.9722 35.0973 27.9722 34.8118C27.9722 34.5263 27.7408 34.2949 27.4553 34.2949C27.1699 34.2949 26.9385 34.5263 26.9385 34.8118C26.9385 35.0973 27.1699 35.3287 27.4553 35.3287Z"
                        fill="white" />
                    <path
                        d="M91.664 41.8736C90.6723 36.6387 86.6154 32.8643 81.8012 32.8643C81.4706 32.8643 81.1401 32.9124 80.7614 32.9124C78.4475 28.8074 74.3906 26.259 70.0512 26.259C63.8246 26.3071 58.5837 31.4038 57.598 38.2915C57.0811 38.1954 56.5582 38.1052 55.9933 38.1052C53.6793 38.1052 51.4615 39.0969 49.8147 40.8879C48.21 42.679 47.3145 45.041 47.3145 47.5894C47.3145 52.8243 51.2332 57.0735 55.9933 57.0735H90.48C94.6331 57.0735 97.9807 53.6296 97.9807 49.4285C97.9868 45.648 95.2521 42.4446 91.664 41.8736Z"
                        fill="#0064A7" />
                    <path d="M92.6309 43.2136H71.1443L62.2432 57.0672H83.7297L92.6309 43.2136Z"
                        fill="url(#paint0_linear_1353_35244)" />
                    <path d="M71.1384 43.2136H65.9276L57.0264 57.0672H62.2373L71.1384 43.2136Z"
                        fill="url(#paint1_linear_1353_35244)" />
                    <path
                        d="M123.048 43.2375C121.798 43.3457 120.566 43.3277 119.388 43.2556C119.028 42.949 119.112 42.5944 119.112 42.2699C119.106 39.7696 119.1 37.2754 119.112 34.7751C119.118 34.1441 119.022 33.537 118.907 32.924C118.739 32.0705 118.336 31.4094 117.627 30.9767C115.181 30.1172 112.813 32.8458 112.873 34.8953C112.933 37.1492 112.891 39.409 112.885 41.6689C112.885 42.1437 112.861 42.6125 112.843 43.0572C111.954 43.3577 110.559 43.3998 108.966 43.1955C108.648 42.8829 108.762 42.4742 108.762 42.1076C108.756 38.4053 108.756 34.709 108.756 31.0067C108.756 30.1412 108.75 29.2758 108.756 28.4103C108.756 28.1278 108.792 27.8453 108.81 27.4967C110.018 27.2323 111.19 27.3585 112.392 27.4126C112.711 28.1338 112.416 28.8791 112.633 29.5703C114.971 27.7371 115.199 27.641 116.431 27.3104C117.868 26.9258 119.274 26.9979 120.765 27.4787C121.612 28.0617 122.393 28.813 122.826 29.8768C123.193 29.979 123.325 29.6604 123.505 29.4681C124.166 28.7649 124.821 28.0617 125.729 27.677C127.177 27.064 128.662 26.8717 130.219 27.2443C131.613 27.5809 132.472 28.4944 132.971 29.7506C133.326 30.6341 133.56 31.5717 133.56 32.5453C133.56 35.9111 133.566 39.2708 133.56 42.6365C133.56 42.7748 133.512 42.913 133.476 43.1354C133.278 43.1834 133.056 43.2796 132.839 43.2796C131.877 43.2976 130.916 43.2916 129.96 43.2796C129.78 43.2796 129.606 43.2075 129.353 43.1534C129.329 42.6966 129.287 42.2759 129.287 41.8552C129.281 39.2588 129.281 36.6684 129.281 34.0719C129.281 33.3988 129.233 32.7377 128.956 32.1006C128.614 31.3072 128.019 30.9226 127.196 30.8324C126.282 30.7302 125.501 31.0187 124.821 31.6378C124.094 32.2989 123.559 33.0742 123.181 34.2643C123.181 36.9929 123.181 39.968 123.181 42.949C123.181 42.9911 123.145 43.0332 123.048 43.2375Z"
                        fill="white" />
                    <path
                        d="M210.78 43.2376C210.503 43.2617 210.275 43.2977 210.041 43.3037C209.037 43.3097 208.033 43.3037 207.126 43.3037C206.729 42.9672 206.801 42.6126 206.795 42.288C206.789 39.6976 206.795 37.1012 206.789 34.5108C206.789 33.9819 206.765 33.471 206.615 32.9481C206.386 32.1307 206.02 31.4335 205.19 30.9467C203.387 30.514 202.011 31.2652 200.941 32.7618C200.803 32.9541 200.659 33.1525 200.544 33.3628C200.43 33.5732 200.352 33.8016 200.19 34.1622C200.19 36.999 200.19 39.9741 200.19 42.9491C200.19 42.9912 200.154 43.0333 200.136 43.0753C199.366 43.3638 198.116 43.4119 196.265 43.2076C196.217 43.0092 196.145 42.7929 196.121 42.5705C196.091 42.3361 196.109 42.0897 196.109 41.8493C196.109 35.3642 196.109 28.8852 196.109 22.4001C196.109 22.0215 196.139 21.6429 196.157 21.2822C197.028 20.9937 198.381 20.9577 200.016 21.156C200.292 21.3604 200.232 21.6669 200.232 21.9434C200.238 24.059 200.232 26.1686 200.238 28.2842C200.238 28.7109 200.268 29.1376 200.286 29.6365C200.484 29.5523 200.635 29.5283 200.707 29.4441C202.323 27.4788 204.475 26.8657 206.885 27.1362C208.634 27.3285 209.89 28.3142 210.467 30.0452C210.696 30.7303 210.888 31.4155 210.888 32.1487C210.888 35.7008 210.894 39.2528 210.894 42.8109C210.9 42.889 210.852 42.9792 210.78 43.2376Z"
                        fill="white" />
                    <path
                        d="M175.692 38.4353C176.906 38.7058 177.994 39.0063 179.028 39.3669C179.124 39.7636 178.932 40.01 178.77 40.2264C177.255 42.2518 175.29 43.4779 172.705 43.5741C172.08 43.5981 171.455 43.5921 170.836 43.5741C169.033 43.532 167.47 42.8468 166.142 41.6748C163.702 39.5172 162.89 36.8186 163.51 33.6332C163.966 31.2832 165.168 29.4621 167.212 28.242C168.414 27.5207 169.742 27.1 171.161 27.082C172.164 27.07 173.168 27.058 174.154 27.3404C176.329 27.9595 178.048 29.1856 179.13 31.187C179.701 32.2388 180.08 33.3867 180.05 34.6248C180.032 35.2379 180.116 35.863 179.99 36.4099C179.599 36.7705 179.196 36.6563 178.83 36.6563C175.71 36.6683 172.591 36.6623 169.472 36.6623C168.997 36.6623 168.528 36.6864 168.131 36.6984C167.777 37.065 167.855 37.4316 167.975 37.7201C168.462 38.85 169.183 39.7876 170.367 40.2685C172.068 40.9536 173.979 40.4728 175.187 39.0664C175.338 38.8801 175.482 38.6938 175.692 38.4353ZM175.554 33.8796C175.843 33.2665 175.518 32.8098 175.314 32.347C174.881 31.3793 174.069 30.8084 173.036 30.3035C172.627 30.2855 172.104 30.2494 171.581 30.2314C169.88 30.1713 168.841 31.1449 168.083 32.5213C167.849 32.942 167.771 33.4048 168.011 33.9337C170.373 34.0118 172.705 33.9577 175.037 33.9637C175.217 33.9577 175.398 33.9036 175.554 33.8796Z"
                        fill="white" />
                    <path
                        d="M143.243 43.6345C141.385 43.7307 139.739 43.1837 138.242 42.1199C136.193 40.6594 135.153 38.628 134.985 36.1578C134.906 35.0158 134.906 33.8619 135.285 32.738C136.139 30.2197 137.755 28.3865 140.268 27.5331C143.441 26.4573 147.354 27.0342 149.74 29.853C150.617 30.8868 151.17 32.0889 151.501 33.4231C151.843 34.8175 151.765 36.1878 151.441 37.5461C151.182 38.622 150.719 39.6257 150.022 40.5032C148.856 41.9817 147.36 42.9974 145.527 43.4302C144.787 43.6045 144.006 43.5744 143.243 43.6345ZM141.836 30.9229C141.65 31.0431 141.494 31.1573 141.331 31.2534C140.051 32.0528 139.426 33.2368 139.318 34.7093C139.288 35.1421 139.306 35.5748 139.312 36.0075C139.336 37.2877 139.901 38.3275 140.857 39.1328C141.482 39.6617 142.203 40.0464 143.068 40.0524C144.751 40.0584 146.001 39.3853 146.807 37.8587C147.828 35.9174 147.54 32.9603 145.713 31.5539C144.769 30.8267 143.741 30.3759 142.515 30.7906C142.293 30.8628 142.047 30.8868 141.836 30.9229Z"
                        fill="white" />
                    <path
                        d="M223.401 33.9157C223.641 33.1945 223.479 32.5634 223.275 31.9143C223.059 31.2232 222.536 30.8145 222.049 30.4238C221.129 30.1113 220.24 29.8649 219.32 30.0331C218.286 30.2255 217.259 30.4839 216.327 31.0128C215.954 31.2232 215.588 31.4455 215.245 31.6439C214.915 31.6499 214.776 31.4335 214.674 31.2292C214.356 30.5921 214.061 29.943 213.743 29.2638C213.953 29.0595 214.097 28.8551 214.296 28.7349C215.792 27.8274 217.415 27.2564 219.158 27.1062C220.498 26.992 221.838 27.0461 223.161 27.3706C225.817 28.0257 227.554 30.3397 227.62 32.888C227.662 34.4747 227.626 36.0614 227.632 37.6481C227.632 38.1229 227.656 38.6037 227.674 39.1326C227.993 39.4211 228.305 39.7036 228.678 40.0402C228.702 41.0679 228.81 42.1558 228.582 43.2977C228.341 43.3759 228.125 43.484 227.903 43.5021C227.422 43.5381 226.941 43.5502 226.46 43.5381C225.39 43.5141 224.639 43.0152 224.261 41.9995C224.176 41.7771 224.11 41.5487 224.008 41.2603C223.605 41.5608 223.221 41.8312 222.854 42.1257C221.646 43.0874 220.294 43.6163 218.737 43.5802C218.497 43.5742 218.256 43.5682 218.016 43.5802C216.808 43.6523 215.774 43.2196 214.806 42.5164C213.556 41.6028 212.979 40.3707 212.847 38.8502C212.655 36.5542 214.332 34.7331 216.051 34.0299C217.98 33.2426 219.969 33.2065 221.989 33.6032C222.451 33.7114 222.914 33.8136 223.401 33.9157ZM223.479 36.386C222.247 35.9773 221.093 35.6647 219.885 35.7849C218.707 35.9051 217.643 36.2898 216.958 37.4558C216.958 37.9606 216.958 38.5256 216.958 39.1266C217.349 39.5113 217.715 39.8839 218.004 40.1724C219.615 40.8636 220.095 40.5751 221.297 40.2025C221.388 40.1724 221.478 40.1303 221.562 40.0943C222.89 39.5594 223.509 38.6578 223.509 37.2454C223.521 37.011 223.503 36.7706 223.479 36.386Z"
                        fill="white" />
                    <path
                        d="M230.854 27.4728C232.411 27.2985 233.433 27.3166 234.502 27.539C234.556 28.2061 234.611 28.9033 234.659 29.5704C235.037 29.6726 235.164 29.4262 235.314 29.2639C237.087 27.4127 239.323 26.8658 241.763 27.1182C243.47 27.2925 244.684 28.2422 245.243 29.937C245.543 30.8566 245.784 31.7702 245.778 32.7498C245.76 35.9713 245.772 39.1928 245.772 42.4083C245.772 42.6427 245.736 42.8711 245.717 43.0754C244.792 43.3639 243.343 43.3939 241.847 43.1776C241.558 42.9131 241.649 42.5585 241.649 42.234C241.643 39.926 241.637 37.6181 241.649 35.3102C241.655 34.589 241.594 33.8797 241.456 33.1645C241.216 31.9264 241.15 31.7822 240.08 30.9407C237.664 30.6222 236.287 31.4516 235.103 34C235.079 36.969 235.109 40.0342 235.085 43.0393C234.587 43.412 234.142 43.2798 233.727 43.2978C233.246 43.3218 232.765 43.3098 232.285 43.3038C231.858 43.2978 231.431 43.2737 231.059 43.2617C230.674 42.823 230.8 42.3722 230.8 41.9575C230.788 37.6301 230.794 33.3028 230.794 28.9814C230.806 28.5066 230.83 28.0318 230.854 27.4728Z"
                        fill="white" />
                    <path
                        d="M194.438 42.4442C193.603 43.0573 192.647 43.3097 191.728 43.4599C190.7 43.6282 189.612 43.6042 188.572 43.484C187.575 43.3698 186.841 42.6846 186.336 41.8191C185.97 41.1881 185.765 40.5209 185.771 39.7636C185.796 37.1672 185.784 34.5708 185.777 31.9744C185.777 31.5537 185.741 31.133 185.717 30.7363C185.104 30.4117 184.497 30.6942 183.872 30.4538C183.83 30.2855 183.734 30.0631 183.728 29.8468C183.71 29.0835 183.692 28.3202 183.746 27.5989C184.353 27.1121 185.044 27.5509 185.693 27.1782C185.862 26.7395 185.753 26.2106 185.771 25.6997C185.79 25.1227 185.777 24.5457 185.777 23.9687C185.777 23.4459 185.784 22.923 185.784 22.4722C186.216 22.0214 186.673 22.1897 187.088 22.1717C187.569 22.1416 188.049 22.1537 188.53 22.1657C188.957 22.1777 189.396 22.0875 189.834 22.3099C190.255 23.0612 190.003 23.8906 190.045 24.69C190.087 25.5014 190.057 26.3188 190.057 27.1902C190.393 27.2503 190.664 27.3225 190.934 27.3405C191.649 27.3826 192.371 27.2864 193.062 27.4066C193.35 28.2661 193.374 28.9332 193.158 30.4598C192.22 30.7303 191.193 30.4177 190.267 30.6401C190.189 30.7723 190.099 30.8505 190.099 30.9286C190.027 33.6152 190.039 36.3018 190.093 39.0184C190.351 39.2588 190.592 39.4812 190.742 39.6194C191.8 39.998 192.629 39.4391 193.567 39.2948C194.12 40.2986 194.276 41.3624 194.438 42.4442Z"
                        fill="white" />
                    <path
                        d="M153.322 27.4248C154.314 27.3046 155.221 27.3828 156.129 27.3647C156.357 27.3587 156.591 27.4008 156.862 27.4248C157.186 28.2482 156.862 29.0957 157.09 29.8409C157.343 29.9852 157.481 29.853 157.607 29.7147C158.316 28.9274 159.038 28.1581 159.981 27.6472C160.799 27.2024 161.652 26.9861 162.512 27.1664C162.86 27.5871 162.734 27.9838 162.752 28.3564C162.77 28.7891 162.764 29.2219 162.752 29.6546C162.746 30.0333 162.716 30.4119 162.698 30.7124C162.307 31.1572 161.85 31.067 161.436 31.1391C159.879 31.4036 158.491 31.9686 157.523 33.4651C157.511 34.1923 157.499 35.0037 157.493 35.8151C157.487 36.6325 157.493 37.4499 157.493 38.2673C157.493 39.0847 157.505 39.9021 157.487 40.7195C157.475 41.5248 157.553 42.3362 157.427 43.1296C157.228 43.2077 157.096 43.2978 156.97 43.2978C155.78 43.3039 154.584 43.394 153.346 43.2378C153.292 43.0334 153.208 42.8531 153.208 42.6788C153.202 37.7805 153.202 32.8821 153.208 27.9838C153.208 27.8335 153.262 27.6953 153.322 27.4248Z"
                        fill="white" />
                    <path
                        d="M147.943 49.8491C149.554 48.7252 149.331 48.6231 151.814 48.7493C153.779 49.2 154.572 50.5824 155.155 52.2232C155.251 53.1788 155.281 54.1885 154.861 55.1321C154.164 56.6828 152.98 57.7105 151.285 57.8848C149.632 58.0591 148.292 57.3439 147.438 55.9014C147.102 55.3365 146.849 54.6934 146.687 54.0563C146.398 52.9384 146.759 51.8806 147.246 50.8829C147.42 50.4982 147.715 50.1737 147.943 49.8491ZM150.281 49.6087C148.063 50.6425 147.582 51.532 147.751 54.2005C148.189 55.4086 148.796 56.4604 150.251 56.845C150.497 56.845 150.834 56.8571 151.164 56.839C151.495 56.827 151.826 56.7849 152.09 56.7669C153.394 55.7332 153.394 55.7332 154.055 54.1104C154.055 53.4553 154.055 52.7881 154.055 52.2833C153.629 50.9791 152.943 50.1016 151.645 49.6027C151.321 49.6087 150.846 49.6087 150.281 49.6087Z"
                        fill="white" />
                    <path
                        d="M182.543 57.6082C182.279 57.6322 182.135 57.6502 181.9 57.6743C181.606 57.3738 181.239 57.0612 180.945 56.6946C179.604 55.0117 178.282 53.3108 176.948 51.622C176.78 51.4056 176.545 51.2433 176.365 51.0871C175.974 51.1892 175.998 51.4537 175.998 51.6821C175.992 53.1245 175.992 54.567 175.992 56.0034C175.992 56.4842 175.992 56.9591 175.992 57.4399C175.824 57.53 175.71 57.6142 175.578 57.6502C175.5 57.6743 175.397 57.6202 175.301 57.6022C175.247 57.524 175.157 57.4459 175.157 57.3678C175.133 56.7908 175.115 56.2198 175.115 55.6428C175.109 53.7676 175.109 51.8984 175.115 50.0233C175.115 49.6506 175.139 49.272 175.157 48.8513C175.397 48.8092 175.578 48.7731 175.788 48.7371C176.912 49.7348 177.651 51.045 178.637 52.1449C179.617 53.2447 180.362 54.5429 181.456 55.5046C181.792 55.4325 181.732 55.2101 181.732 55.0418C181.738 53.5032 181.738 51.9646 181.738 50.4319C181.738 49.9511 181.738 49.4763 181.738 48.9234C181.973 48.8573 182.183 48.8032 182.429 48.7371C182.766 49.4823 182.592 50.2036 182.622 50.9068C182.652 51.6761 182.628 52.4454 182.628 53.2147C182.628 53.9359 182.64 54.6571 182.628 55.3784C182.61 56.0756 182.688 56.7908 182.543 57.6082Z"
                        fill="white" />
                    <path
                        d="M220.005 55.589C220.191 54.8077 220.083 54.0864 220.101 53.3772C220.119 52.6079 220.107 51.8386 220.107 51.0693C220.107 50.3541 220.113 49.6389 220.113 49.0198C220.377 48.7073 220.588 48.7013 220.816 48.8515C220.858 48.9357 220.942 49.0138 220.942 49.0979C220.948 51.8807 220.948 54.6634 220.948 57.5243C220.714 57.5784 220.497 57.6325 220.239 57.6926C218.256 55.577 216.651 53.1909 214.788 51.0873C214.475 51.1234 214.361 51.2556 214.361 51.472C214.355 53.0106 214.349 54.5492 214.343 56.0878C214.337 56.5626 214.313 57.0314 214.295 57.5243C214.103 57.5784 213.976 57.6385 213.844 57.6445C213.766 57.6505 213.682 57.5724 213.598 57.5303C213.399 57.2779 213.363 50.8409 213.556 48.8635C213.7 48.8215 213.874 48.7674 214.079 48.7073C214.337 48.9417 214.613 49.14 214.818 49.3924C216.128 51.0392 217.42 52.7041 218.724 54.3509C219.079 54.7956 219.422 55.2644 220.005 55.589Z"
                        fill="white" />
                    <path
                        d="M245.651 56.6644C245.098 57.4998 244.274 57.6921 243.493 57.8664C242.652 58.0528 241.774 57.9866 240.951 57.6501C240.302 57.3856 239.586 57.2173 239.1 56.5201C239.244 56.3278 239.382 56.1475 239.484 56.0153C239.61 56.0093 239.677 55.9852 239.701 56.0093C240.56 56.6884 241.606 56.8327 242.628 57.043C242.676 57.0551 242.724 57.043 242.904 57.043C243.361 56.8747 243.938 56.6644 244.479 56.466C244.641 56.1355 244.761 55.877 244.906 55.5825C244.791 55.276 244.677 54.9695 244.575 54.699C243.806 54.08 242.922 53.8576 242.045 53.6232C241.63 53.515 241.209 53.4189 240.806 53.2746C240.308 53.0943 239.839 52.8539 239.49 52.2649C239.34 51.766 239.412 51.141 239.424 50.4738C239.532 50.2515 239.635 49.981 239.791 49.7466C240.224 49.1095 240.837 48.7669 241.6 48.7369C242.225 48.7128 242.85 48.7068 243.469 48.7309C244.274 48.7669 244.527 48.9052 245.35 49.6745C245.314 49.7887 245.278 49.9209 245.224 50.0411C245.188 50.1253 245.116 50.1914 245.026 50.3176C244.527 50.0892 244.016 49.8608 243.463 49.6084C242.549 49.5543 241.582 49.38 240.704 50.1793C240.596 50.4017 240.452 50.6962 240.296 51.0268C240.434 51.3333 240.572 51.6338 240.698 51.9103C241.347 52.4272 242.105 52.5714 242.844 52.7758C243.349 52.914 243.854 53.0643 244.353 53.2265C244.827 53.3768 245.2 53.6893 245.495 54.074C245.921 54.6209 246.18 55.2279 245.903 55.9432C245.795 56.2136 245.711 56.4841 245.651 56.6644Z"
                        fill="white" />
                    <path
                        d="M162.823 56.2558C163.238 56.4782 163.533 56.6405 163.857 56.8147C164.5 56.8147 165.167 56.8147 165.81 56.8147C166.429 56.5323 166.82 56.0454 167.181 55.6127C167.553 54.7532 167.662 53.9118 167.637 53.0403C167.613 51.9344 167.631 50.8346 167.631 49.7287C167.631 49.4462 167.662 49.1697 167.668 48.9714C167.998 48.6769 168.263 48.7069 168.539 48.8271C168.587 48.9053 168.683 48.9834 168.683 49.0615C168.701 50.6422 168.767 52.2289 168.701 53.8096C168.653 54.8614 168.335 55.8771 167.65 56.8268C167.367 57.0251 167.018 57.2715 166.772 57.4398C165.306 58.0829 163.965 58.0829 162.667 57.3316C162.421 57.1874 162.174 57.0071 162.018 56.7787C161.453 55.9373 161.014 55.0177 160.99 53.9899C160.948 52.3131 160.978 50.6362 160.978 49.0555C161.207 48.719 161.423 48.713 161.735 48.8692C161.766 48.9954 161.838 49.1757 161.844 49.35C161.856 50.1674 161.904 50.9848 161.844 51.7962C161.771 52.7699 161.982 53.7075 162.15 54.639C162.252 55.18 162.583 55.6848 162.823 56.2558Z"
                        fill="white" />
                    <path
                        d="M203.224 48.7371C203.621 48.7611 203.898 48.7851 204.234 48.8032C205.424 51.6821 206.566 54.549 207.678 57.3798C207.594 57.488 207.57 57.5481 207.534 57.5541C207.311 57.6082 207.089 57.6502 206.927 57.6863C206.416 57.3437 206.374 56.8449 206.199 56.4121C206.025 55.9734 205.785 55.5647 205.544 55.0899C204.282 55.0538 203.05 55.0418 201.782 55.1019C201.397 55.9674 201.031 56.7848 200.706 57.524C200.291 57.7284 199.979 57.8005 199.69 57.4218C200.838 54.579 202.004 51.7181 203.224 48.7371ZM205.28 54.1944C204.979 52.7579 204.378 51.5318 203.849 50.2576C203.182 50.8707 202.467 52.4634 202.089 54.1523C202.275 54.1823 202.455 54.2424 202.635 54.2424C203.489 54.2364 204.342 54.2845 205.28 54.1944Z"
                        fill="white" />
                    <path
                        d="M115.95 57.4576C115.662 57.734 115.439 57.6619 115.217 57.6018C114.496 56.9467 114.622 55.8649 113.955 55.2158C112.939 55.0174 111.4 55.0054 110.066 55.1857C109.748 55.943 109.411 56.7243 109.098 57.4696C108.708 57.728 108.359 57.7761 107.98 57.4696C109.158 54.6147 110.336 51.7539 111.514 48.905C111.821 48.6346 112.14 48.7487 112.428 48.8028C113.083 49.9328 115.674 56.2856 115.95 57.4576ZM112.031 50.1311C111.893 50.3415 111.797 50.4496 111.743 50.5759C111.334 51.5856 110.931 52.6013 110.541 53.623C110.493 53.7432 110.535 53.8995 110.535 54.1039C111.575 54.3262 112.584 54.3202 113.696 54.0918C113.107 52.7816 112.861 51.4233 112.031 50.1311Z"
                        fill="white" />
                    <path
                        d="M124.353 49.6088C123.223 50.0355 122.478 50.7988 121.997 52.067C121.997 52.5118 122.009 53.1368 121.997 53.7559C121.979 54.5192 122.255 55.1623 122.778 55.7032C123.145 56.0758 123.542 56.4244 123.938 56.791C124.629 56.791 125.297 56.791 126.036 56.791C126.835 56.6708 127.316 55.9496 127.935 55.4327C128.181 55.571 128.386 55.6852 128.65 55.8354C128.338 56.5687 127.821 57.0555 127.184 57.368C125.928 57.9751 124.635 58.1614 123.343 57.4462C122.526 56.9954 121.895 56.3583 121.438 55.5529C121.252 55.2224 121.095 54.8678 120.915 54.4951C120.915 53.6537 120.915 52.7882 120.915 52.0249C121.27 50.7688 122.015 49.9153 122.923 49.2001C123.764 48.7313 124.665 48.7073 125.585 48.7073C126.462 48.7073 127.172 49.0198 127.749 49.6569C127.971 49.8973 128.169 50.1557 128.356 50.3781C128.296 50.5344 128.284 50.6426 128.224 50.7027C128.127 50.8048 128.001 50.877 127.857 50.9791C127.538 50.6967 127.256 50.3961 126.913 50.1618C126.601 49.9454 126.234 49.8071 125.849 49.6088C125.369 49.6088 124.846 49.6088 124.353 49.6088Z"
                        fill="white" />
                    <path
                        d="M134.948 49.8608C135.255 49.6505 135.495 49.4942 135.724 49.3199C136.277 48.8932 136.896 48.6828 137.593 48.7189C137.737 48.7249 137.881 48.7309 138.026 48.7189C139.468 48.5686 140.532 49.1637 141.283 50.3717C141.307 50.7744 140.905 50.7323 140.718 50.9968C140.057 50.528 139.63 49.8248 138.549 49.6144C138.362 49.6144 137.887 49.6144 137.304 49.6144C136.962 49.7767 136.529 49.9871 136.156 50.1674C135.465 50.8706 135.039 51.6639 134.732 52.6075C134.618 54.3565 135.129 55.853 137.004 56.7666C137.244 56.8147 137.617 56.8868 138.008 56.9649C139.516 56.7366 139.54 56.7786 140.82 55.4023C140.989 55.5345 141.169 55.6727 141.391 55.841C141.313 56.0874 141.301 56.3579 141.157 56.5082C140.292 57.4157 139.174 57.9686 137.96 57.8905C136.247 57.7823 134.864 56.9589 134.173 55.264C134.029 54.9094 133.963 54.5308 133.818 54.1762C133.554 53.5211 133.554 52.878 133.818 52.2229C133.975 51.8262 134.035 51.3814 134.215 50.9968C134.401 50.6121 134.678 50.2695 134.948 49.8608Z"
                        fill="white" />
                    <path
                        d="M195.735 48.7249C195.765 49.0374 195.777 49.2117 195.789 49.362C195.669 49.4401 195.591 49.5363 195.513 49.5363C194.653 49.5724 193.788 49.5904 192.85 49.6204C192.784 49.8909 192.664 50.1554 192.658 50.4138C192.64 52.4813 192.652 54.5428 192.646 56.6103C192.646 56.989 192.712 57.3797 192.513 57.6621C192.141 57.9566 191.93 57.6441 191.672 57.608C191.624 57.4277 191.552 57.2955 191.552 57.1573C191.54 55.1859 191.54 53.2206 191.54 51.2492C191.54 50.7744 191.54 50.2936 191.54 49.7527C191.203 49.6866 190.939 49.5964 190.668 49.5784C189.959 49.5303 189.238 49.6325 188.475 49.5002C188.445 49.2839 188.421 49.1096 188.396 48.9593C188.511 48.8692 188.577 48.779 188.655 48.761C188.841 48.7249 189.034 48.7129 189.226 48.7129C191.348 48.7249 193.457 48.7249 195.735 48.7249Z"
                        fill="white" />
                    <path
                        d="M233.631 49.6086C232.873 49.6086 232.062 49.6086 231.185 49.6086C231.118 49.9271 231.016 50.1916 231.016 50.456C231.004 52.3252 231.01 54.1944 231.004 56.0636C231.004 56.5384 230.98 57.0072 230.968 57.4039C230.686 57.7524 230.403 57.6923 230.043 57.6082C230.001 57.3738 229.904 57.1033 229.904 56.8389C229.892 54.9697 229.898 53.1005 229.898 51.2313C229.898 50.7565 229.874 50.2877 229.862 49.7468C229.592 49.6867 229.369 49.6026 229.147 49.5966C228.432 49.5785 227.711 49.5906 226.923 49.5906C226.857 49.3622 226.803 49.1518 226.749 48.9715C226.887 48.8753 226.959 48.7792 227.038 48.7732C228.372 48.665 232.795 48.7191 233.763 48.8393C233.895 49.2299 233.895 49.2299 233.631 49.6086Z"
                        fill="white" />
                </g>
                <defs>
                    <filter id="filter0_dd_1353_35244" x="0.981445" y="0.0314941" width="266.036" height="78.9373"
                        filterUnits="userSpaceOnUse" color-interpolation-filters="sRGB">
                        <feFlood flood-opacity="0" result="BackgroundImageFix" />
                        <feColorMatrix in="SourceAlpha" type="matrix" values="0 0 0 0 0 0 0 0 0 0 0 0 0 0 0 0 0 0 127 0"
                            result="hardAlpha" />
                        <feOffset />
                        <feGaussianBlur stdDeviation="10.5" />
                        <feComposite in2="hardAlpha" operator="out" />
                        <feColorMatrix type="matrix"
                            values="0 0 0 0 0.152941 0 0 0 0 0.560784 0 0 0 0 0.815686 0 0 0 0.25 0" />
                        <feBlend mode="plus-lighter" in2="BackgroundImageFix" result="effect1_dropShadow_1353_35244" />
                        <feColorMatrix in="SourceAlpha" type="matrix" values="0 0 0 0 0 0 0 0 0 0 0 0 0 0 0 0 0 0 127 0"
                            result="hardAlpha" />
                        <feOffset dy="2" />
                        <feGaussianBlur stdDeviation="0.8" />
                        <feComposite in2="hardAlpha" operator="out" />
                        <feColorMatrix type="matrix" values="0 0 0 0 0 0 0 0 0 0 0 0 0 0 0 0 0 0 0.25 0" />
                        <feBlend mode="darken" in2="effect1_dropShadow_1353_35244"
                            result="effect2_dropShadow_1353_35244" />
                        <feBlend mode="normal" in="SourceGraphic" in2="effect2_dropShadow_1353_35244" result="shape" />
                    </filter>
                    <linearGradient id="paint0_linear_1353_35244" x1="61.8974" y1="56.8504" x2="88.9051" y2="45.188"
                        gradientUnits="userSpaceOnUse">
                        <stop offset="0.000241636" stop-color="#288FD0" />
                        <stop offset="0.8467" stop-color="#1F86C7" stop-opacity="0" />
                    </linearGradient>
                    <linearGradient id="paint1_linear_1353_35244" x1="67.1657" y1="52.4424" x2="61.7182" y2="48.3759"
                        gradientUnits="userSpaceOnUse">
                        <stop offset="0.1533" stop-color="#005287" />
                        <stop offset="0.9998" stop-color="#0265A8" stop-opacity="0" />
                    </linearGradient>
                </defs>
            </svg>