<svg width="134" height="133" viewBox="0 0 134 133" fill="none" xmlns="http://www.w3.org/2000/svg">
<path d="M123.819 81.4536H114.727C109.36 81.4536 104.296 87.3604 104.078 93.8747L103.483 111.692C103.309 116.884 106.327 120.701 110.605 120.701H115.021C119.298 120.701 123.572 116.885 125.109 111.692L130.379 93.8747C132.306 87.3604 129.187 81.4536 123.819 81.4536Z" fill="#278FD0"/>
<path opacity="0.5" d="M122.631 111.692L127.901 93.8747C129.828 87.3604 126.707 81.4536 121.34 81.4536H123.819C129.186 81.4536 132.305 87.3604 130.38 93.8747L125.11 111.692C123.575 116.884 119.301 120.701 115.022 120.701H112.543C116.822 120.701 121.096 116.885 122.631 111.692Z" fill="#3C3C3B"/>
<path d="M110.15 69.9653C110.15 69.154 110.808 68.4963 111.619 68.4963H132.03C132.841 68.4963 133.499 69.154 133.499 69.9653V78.571C133.499 79.3823 132.841 80.04 132.03 80.04H111.619C110.808 80.04 110.15 79.3823 110.15 78.571V69.9653Z" fill="#316586"/>
<path d="M110.15 69.9653C110.15 69.154 110.701 68.4963 111.38 68.4963H128.467C129.147 68.4963 129.697 69.154 129.697 69.9653V78.571C129.697 79.3823 129.147 80.04 128.467 80.04H111.38C110.701 80.04 110.15 79.3823 110.15 78.571V69.9653Z" fill="#278FD0"/>
<path d="M132.968 103.126H113.185C111.455 103.126 109.898 103.758 109.258 104.722L108.991 105.124C108.991 105.124 124.163 105.124 127.735 105.124C131.307 105.124 132.968 103.126 132.968 103.126Z" fill="#3C3C3B"/>
<path d="M101.179 128.389C101.546 127.94 101.788 127.493 101.999 127.043C102.205 126.594 102.363 126.147 102.485 125.698C102.605 125.249 102.689 124.801 102.739 124.352C102.784 123.903 102.826 123.455 102.77 123.006C102.682 122.11 102.144 121.211 101.804 120.315C101.641 119.866 101.548 119.418 101.541 118.969C101.487 118.52 101.604 118.073 103.146 117.624C103.634 117.481 104.14 117.491 104.593 117.624C106.134 118.073 106.252 118.52 106.198 118.969C106.193 119.418 106.099 119.866 105.935 120.315C105.596 121.211 105.058 122.11 104.969 123.006C104.913 123.455 104.955 123.903 105 124.352C105.051 124.801 105.134 125.249 105.255 125.698C105.376 126.147 105.535 126.594 105.74 127.043C105.951 127.493 106.193 127.94 106.56 128.389C107.598 129.656 107.234 131.401 105.747 132.285C104.261 133.169 102.213 132.86 101.174 131.592C100.37 130.607 100.417 129.324 101.179 128.389Z" fill="#3C3C3B"/>
<path d="M105.73 129.237C105.955 129.477 106.202 129.641 106.454 129.783C106.708 129.921 106.971 130.027 107.241 130.109C107.511 130.191 107.79 130.247 108.078 130.262C108.367 130.278 108.663 130.267 108.985 130.172C109.504 130.015 110.053 130.311 110.208 130.83C110.364 131.349 110.068 131.897 109.55 132.052C109.17 132.165 108.775 132.038 108.529 131.759C108.308 131.507 108.063 131.34 107.809 131.201C107.554 131.061 107.29 130.962 107.018 130.887C106.747 130.812 106.466 130.764 106.177 130.746C105.888 130.732 105.593 130.741 105.274 130.824C104.76 130.962 104.233 130.656 104.095 130.142C103.958 129.629 104.264 129.101 104.778 128.964C105.133 128.87 105.495 128.986 105.73 129.237Z" fill="#B2B2B2"/>
<path d="M108.137 128.807C108.456 129.07 108.797 129.239 109.145 129.383C109.495 129.521 109.853 129.623 110.219 129.693C110.585 129.764 110.959 129.804 111.344 129.797C111.728 129.79 112.124 129.75 112.543 129.606C113.22 129.374 113.972 129.67 114.223 130.267C114.472 130.865 114.126 131.537 113.448 131.768C112.952 131.937 112.418 131.824 112.068 131.517C111.753 131.241 111.413 131.066 111.063 130.927C110.715 130.788 110.355 130.694 109.986 130.631C109.618 130.569 109.242 130.537 108.858 130.542C108.471 130.553 108.078 130.589 107.663 130.718C106.991 130.927 106.266 130.616 106.041 130.024C105.816 129.432 106.18 128.782 106.852 128.574C107.314 128.429 107.804 128.535 108.137 128.807Z" fill="#B2B2B2"/>
<path d="M101.898 129.237C101.674 129.477 101.427 129.641 101.174 129.783C100.92 129.921 100.657 130.027 100.387 130.109C100.117 130.191 99.8389 130.247 99.5499 130.262C99.2609 130.278 98.965 130.267 98.6429 130.172C98.1242 130.015 97.5758 130.311 97.4209 130.83C97.2642 131.349 97.5601 131.897 98.0789 132.052C98.4584 132.165 98.8536 132.038 99.0991 131.759C99.3201 131.507 99.5656 131.34 99.8198 131.201C100.074 131.061 100.339 130.962 100.61 130.887C100.882 130.812 101.162 130.764 101.451 130.746C101.74 130.732 102.036 130.741 102.354 130.824C102.868 130.962 103.395 130.656 103.533 130.142C103.671 129.629 103.364 129.101 102.851 128.964C102.495 128.87 102.133 128.986 101.898 129.237Z" fill="#B2B2B2"/>
<path d="M99.4902 128.807C99.1716 129.07 98.8304 129.239 98.4822 129.383C98.1323 129.521 97.7737 129.623 97.4081 129.693C97.0425 129.764 96.6682 129.804 96.2835 129.797C95.8988 129.79 95.5036 129.75 95.0858 129.606C94.4086 129.374 93.6566 129.67 93.4059 130.267C93.1569 130.865 93.5033 131.537 94.1805 131.768C94.6749 131.937 95.2111 131.824 95.5611 131.517C95.8762 131.241 96.2156 131.066 96.5655 130.927C96.9137 130.788 97.2741 130.694 97.6431 130.631C98.0104 130.569 98.3865 130.537 98.7712 130.542C99.1577 130.553 99.5511 130.589 99.9654 130.718C100.637 130.927 101.363 130.616 101.588 130.024C101.812 129.432 101.449 128.782 100.777 128.574C100.314 128.429 99.8227 128.535 99.4902 128.807Z" fill="#B2B2B2"/>
<path d="M111.016 131.188C111.016 130.189 110.206 129.38 109.207 129.38C108.208 129.38 107.398 130.189 107.398 131.188C107.398 132.188 108.208 132.997 109.207 132.997C110.206 132.997 111.016 132.188 111.016 131.188Z" fill="#3C3C3B"/>
<path d="M112.212 131.188C112.212 130.189 111.403 129.38 110.403 129.38C109.404 129.38 108.595 130.189 108.595 131.188C108.595 132.188 109.404 132.997 110.403 132.997C111.403 132.997 112.212 132.188 112.212 131.188Z" fill="#575756"/>
<path d="M114.418 132.997C115.417 132.997 116.227 132.187 116.227 131.188C116.227 130.189 115.417 129.38 114.418 129.38C113.419 129.38 112.609 130.189 112.609 131.188C112.609 132.187 113.419 132.997 114.418 132.997Z" fill="#3C3C3B"/>
<path d="M115.614 132.997C116.613 132.997 117.423 132.187 117.423 131.188C117.423 130.189 116.613 129.38 115.614 129.38C114.615 129.38 113.806 130.189 113.806 131.188C113.806 132.187 114.615 132.997 115.614 132.997Z" fill="#575756"/>
<path d="M99.5179 131.188C99.5179 130.189 98.7084 129.38 97.7091 129.38C96.7099 129.38 95.9004 130.189 95.9004 131.188C95.9004 132.188 96.7099 132.997 97.7091 132.997C98.7084 132.997 99.5179 132.188 99.5179 131.188Z" fill="#3C3C3B"/>
<path d="M100.712 131.188C100.712 130.189 99.9027 129.38 98.9035 129.38C97.9042 129.38 97.0947 130.189 97.0947 131.188C97.0947 132.188 97.9042 132.997 98.9035 132.997C99.9027 132.997 100.712 132.188 100.712 131.188Z" fill="#575756"/>
<path d="M94.7738 131.188C94.7738 130.189 93.9643 129.38 92.965 129.38C91.9658 129.38 91.1562 130.189 91.1562 131.188C91.1562 132.188 91.9658 132.997 92.965 132.997C93.9643 132.997 94.7738 132.188 94.7738 131.188Z" fill="#3C3C3B"/>
<path d="M95.9681 131.188C95.9681 130.189 95.1586 129.38 94.1593 129.38C93.1601 129.38 92.3506 130.189 92.3506 131.188C92.3506 132.188 93.1601 132.997 94.1593 132.997C95.1586 132.997 95.9681 132.188 95.9681 131.188Z" fill="#575756"/>
<path d="M114.65 114.311C113.736 114.252 112.628 114.264 111.81 114.264C109.07 114.26 99.2255 114.257 96.4853 114.253C95.2876 114.252 94.3754 114.175 93.3901 114.967C92.5945 115.608 91.9922 116.569 91.9922 117.639C91.9922 121.415 96.3321 121.128 98.2297 121.051C101.267 120.928 104.305 120.881 107.343 120.909C108.863 120.923 110.381 120.957 111.901 121.01C113.208 121.055 114.592 121.288 115.863 120.792C116.951 120.325 117.734 119.225 117.943 118.034C118.196 116.597 117.336 115.392 116.187 114.657C115.71 114.353 115.257 114.351 114.65 114.311Z" fill="#3C3C3B"/>
<path d="M66.3985 87.2052H104.3C104.786 87.2052 105.183 87.5993 105.183 88.0882V90.0913C105.183 90.5772 104.789 90.9743 104.3 90.9743H66.3985C65.9125 90.9743 65.5155 90.5802 65.5155 90.0913V88.0882C65.5155 87.5993 65.9096 87.2052 66.3985 87.2052Z" fill="#278FD0"/>
<path d="M25.1552 87.2052H66.9202C67.4299 87.2052 67.8447 87.62 67.8447 88.1297V90.0468C67.8447 90.5565 67.4299 90.9713 66.9202 90.9713H25.1552C24.6456 90.9713 24.2307 90.5565 24.2307 90.0468V88.1297C24.2307 87.6171 24.6456 87.2052 25.1552 87.2052Z" fill="#004573"/>
<path d="M32.6734 90.9712C39.4323 90.9712 40.4308 96.127 40.4308 99.2472V126.543C40.4308 130.108 42.9939 132.997 46.1556 132.997H95.9832C98.1937 132.997 99.9834 130.979 99.9834 128.487V90.9683H32.6734V90.9712Z" fill="#575756"/>
<path d="M59.5815 90.9712C66.3403 90.9712 67.3389 96.127 67.3389 99.2472C67.3389 102.37 67.3389 133 67.3389 133H36.6008C35.3178 133 34.2748 131.827 34.2748 130.378V99.2472C34.2748 96.124 33.2762 90.9712 26.5174 90.9712H59.5815Z" fill="#3C3C3B"/>
<path opacity="0.2" d="M99.9804 95.004H67.0159H65.8454H39.6516C38.7182 92.838 36.7388 90.9712 32.6734 90.9712H99.9834V95.004H99.9804Z" fill="#1D1D1B"/>
<path opacity="0.2" d="M90.2615 30.7122C89.351 30.0525 88.496 29.3393 87.6555 28.6076C86.821 27.8739 85.9866 27.1361 85.1584 26.3942C84.3322 25.6502 83.5409 24.8713 82.7887 24.0533C82.4105 23.6463 82.0509 23.2209 81.722 22.7667C81.3932 22.3104 81.0849 21.8336 80.8424 21.2911C80.678 20.9232 80.38 20.6087 79.9833 20.432C79.8333 20.3641 79.6771 20.323 79.5209 20.3004C83.2244 16.3688 83.1566 10.1805 79.3112 6.3352C77.1635 4.18749 74.2821 3.21949 71.4747 3.42707C68.6652 3.21949 65.7858 4.18544 63.6381 6.3352C59.7209 10.2525 59.7209 16.6031 63.6381 20.5203C65.7858 22.6681 68.6673 23.6361 71.4747 23.4285C73.5875 23.5847 75.7372 23.075 77.589 21.9015C77.554 22.5838 77.9322 23.2476 78.594 23.5415C79.1366 23.784 79.6134 24.0923 80.0696 24.4212C80.5259 24.75 80.9513 25.1097 81.3562 25.4878C82.1742 26.24 82.9531 27.0292 83.6971 27.8575C84.439 28.6857 85.1748 29.5181 85.9106 30.3546C86.6402 31.1952 87.3554 32.0501 88.0151 32.9606C88.1117 33.0921 88.235 33.2175 88.3748 33.3203C89.0962 33.8423 90.1032 33.682 90.6253 32.9606C91.1411 32.2413 90.9808 31.2342 90.2615 30.7122ZM66.1414 19.5092C62.7852 16.153 62.7852 10.7108 66.1414 7.35459C67.7404 5.75563 69.7339 4.94587 71.746 4.90066C73.5957 5.12057 75.3878 5.93649 76.8059 7.35459C80.1621 10.7108 80.1621 16.153 76.8059 19.5092C75.318 20.9972 73.4189 21.8254 71.4726 21.9919C69.5284 21.8233 67.6294 20.9972 66.1414 19.5092ZM62.5078 10.9204C62.0844 12.5646 62.0844 14.2951 62.5078 15.9413C62.0104 14.3074 62.0104 12.5543 62.5078 10.9204Z" fill="black"/>
<path d="M62.3667 3.57905C58.4494 7.49631 58.4494 13.8469 62.3667 17.7642C66.2839 21.6814 72.6345 21.6814 76.5518 17.7642C80.4691 13.8469 80.4691 7.49631 76.5518 3.57905C72.6345 -0.3382 66.2839 -0.3382 62.3667 3.57905ZM75.5365 16.7489C72.1803 20.1051 66.7381 20.1051 63.3819 16.7489C60.0258 13.3927 60.0258 7.95051 63.3819 4.59433C66.7381 1.23816 71.8248 1.35736 75.181 4.71354C78.5371 8.06972 78.8927 13.3927 75.5365 16.7489Z" fill="#0064A7"/>
<path d="M60.8774 3.57905C56.9601 7.49631 56.9601 13.8469 60.8774 17.7642C64.7946 21.6814 71.1453 21.6814 75.0625 17.7642C78.9798 13.8469 78.9798 7.49631 75.0625 3.57905C71.1453 -0.3382 64.7946 -0.3382 60.8774 3.57905ZM74.0473 16.7489C70.6911 20.1051 65.2489 20.1051 61.8927 16.7489C58.5365 13.3927 58.5365 7.95051 61.8927 4.59433C65.2489 1.23816 70.6911 1.23816 74.0473 4.59433C77.4034 7.95051 77.4034 13.3927 74.0473 16.7489Z" fill="url(#paint0_linear_1397_35039)"/>
<path d="M78.082 18.5349C78.3245 19.0775 78.6328 19.5543 78.9616 20.0106C79.2905 20.4668 79.6501 20.8923 80.0283 21.2971C80.7805 22.1151 81.5697 22.894 82.3979 23.638C83.2262 24.38 84.0586 25.1157 84.895 25.8515C85.7356 26.5811 86.5906 27.2963 87.5011 27.9561C88.2224 28.4781 88.3828 29.4851 87.8607 30.2065C87.3387 30.9279 86.3316 31.0882 85.6103 30.5662C85.4705 30.4655 85.3472 30.3401 85.2506 30.2065C84.5909 29.2961 83.8777 28.4411 83.146 27.6005C82.4123 26.7661 81.6745 25.9317 80.9326 25.1034C80.1886 24.2772 79.4096 23.486 78.5917 22.7337C78.1847 22.3556 77.7593 21.9959 77.3051 21.6671C76.8489 21.3382 76.372 21.03 75.8294 20.7874C74.9704 20.4031 74.586 19.3961 74.9704 18.537C75.3547 17.6779 76.3618 17.2936 77.2208 17.6779C77.6216 17.8526 77.9176 18.167 78.082 18.5349Z" fill="#003457"/>
<path d="M98.1302 72.6854H106.13C107.049 72.6854 107.791 71.9395 107.791 71.0242V41.3521C107.791 40.4328 107.045 39.6909 106.13 39.6909H98.1302V72.6854Z" fill="#0064A7"/>
<path d="M107.791 45.4729L101.412 39.6869H106.283C107.118 39.6869 107.791 40.3603 107.791 41.1949V45.4729Z" fill="#003254"/>
<path d="M107.791 66.9044L101.412 72.6904H106.283C107.118 72.6904 107.791 72.0171 107.791 71.1825V66.9044Z" fill="#003254"/>
<path d="M98.1318 39.6894L98.1318 72.6879L96.9464 72.6879L96.9464 39.6894L98.1318 39.6894Z" fill="#278FD0"/>
<path d="M66.5707 39.6918H96.9443V72.6903H56.6155V49.647C56.6155 44.1472 61.071 39.6918 66.5707 39.6918Z" fill="#003F69"/>
<path d="M67.8896 41.1752H95.7754V72.6858H57.9384V51.1263C57.9344 45.6306 62.3939 41.1752 67.8896 41.1752Z" fill="#002640"/>
<path d="M62.7156 41.1752H71.5459C68.9049 41.1752 66.7639 43.3162 66.7639 45.9572V72.6899H57.9336V45.9572C57.9336 43.3162 60.0746 41.1752 62.7156 41.1752Z" fill="#001E33"/>
<path d="M69.7324 73.8752V81.8386C69.7324 82.774 68.8978 83.5361 67.8696 83.5361H33.5647C32.5365 83.5361 31.7019 82.7781 31.7019 81.8386V73.8752H69.7324Z" fill="#52A5D9"/>
<path d="M96.9443 73.8752V81.8749C96.9443 82.7942 96.1984 83.5361 95.2831 83.5361H65.6111C64.6918 83.5361 63.9499 82.7902 63.9499 81.8749V73.8752H96.9443Z" fill="#2382BD"/>
<path d="M69.7324 83.536L63.9464 77.1572V82.028C63.9464 82.8626 64.6198 83.536 65.4544 83.536H69.7324Z" fill="#003254"/>
<path d="M37.4834 83.536L31.6974 77.1572V82.028C31.6974 82.8626 32.3707 83.536 33.2054 83.536H37.4834Z" fill="#003254"/>
<path d="M91.1583 83.536L96.9443 77.1572V82.028C96.9443 82.8626 96.271 83.536 95.4363 83.536H91.1583Z" fill="#003254"/>
<path d="M40.8586 84.7287C40.6932 84.4626 40.6287 84.1965 40.5884 83.9304C40.5481 83.6643 40.5642 83.3981 40.5884 83.132C40.6126 82.8659 40.6529 82.5998 40.7174 82.3337C40.782 82.0676 40.8666 81.8014 41.0037 81.5353C41.29 80.9749 41.0642 80.2854 40.5037 79.9991C39.9433 79.7128 39.2538 79.9386 38.9675 80.4991C38.7982 80.8337 38.8103 81.2208 38.9675 81.5313C39.1046 81.7974 39.1893 82.0635 39.2538 82.3296C39.3183 82.5958 39.3586 82.8619 39.3828 83.128C39.407 83.3941 39.4191 83.6602 39.3828 83.9263C39.3425 84.1925 39.278 84.4586 39.1127 84.7247C38.8143 85.2085 38.9635 85.8375 39.4473 86.1359C39.9312 86.4343 40.5602 86.2851 40.8586 85.8013C41.0723 85.4626 41.0561 85.0473 40.8586 84.7287Z" fill="#3C3C3B"/>
<path d="M53.6652 84.7287C53.4999 84.4626 53.4354 84.1965 53.395 83.9304C53.3547 83.6643 53.3708 83.3981 53.395 83.132C53.4192 82.8659 53.4596 82.5998 53.5241 82.3337C53.5886 82.0676 53.6733 81.8014 53.8103 81.5353C54.0966 80.9749 53.8708 80.2854 53.3104 79.9991C52.7499 79.7128 52.0604 79.9386 51.7741 80.4991C51.6048 80.8337 51.6169 81.2208 51.7741 81.5313C51.9112 81.7974 51.9959 82.0635 52.0604 82.3296C52.125 82.5958 52.1653 82.8619 52.1894 83.128C52.2136 83.3941 52.2257 83.6602 52.1894 83.9263C52.1491 84.1925 52.0846 84.4586 51.9193 84.7247C51.621 85.2085 51.7701 85.8375 52.254 86.1359C52.7378 86.4343 53.3668 86.2851 53.6652 85.8013C53.8749 85.4626 53.8587 85.0473 53.6652 84.7287Z" fill="#3C3C3B"/>
<path d="M53.9669 86.3418C53.5798 87.1765 52.7613 88.6885 51.6202 89.4304C49.9953 90.4908 46.5076 90.3376 46.5076 90.3376C46.4552 90.3376 46.3987 90.3336 46.3463 90.3296C46.2939 90.3336 46.2414 90.3376 46.185 90.3376C46.185 90.3376 42.6973 90.4949 41.0724 89.4304C39.9313 88.6845 39.1127 87.1765 38.7257 86.3418C38.5523 86.1039 38.4475 85.8136 38.4475 85.4991C38.4475 84.7048 39.0885 84.0637 39.8829 84.0637C40.6772 84.0637 41.3183 84.7048 41.3183 85.4991C41.3183 85.7249 41.2659 85.9386 41.1691 86.1322C41.2175 86.1281 41.2659 86.1241 41.3183 86.1241C42.1126 86.1241 42.7537 86.7692 42.7537 87.5595C42.7537 87.5676 42.7537 87.5716 42.7537 87.5797C42.9956 87.3942 43.298 87.2813 43.6287 87.2813C44.2254 87.2813 44.7375 87.6442 44.9552 88.1643C45.2052 87.749 45.6608 87.4708 46.185 87.4708C46.2374 87.4708 46.2939 87.4749 46.3463 87.4789C46.3987 87.4749 46.4511 87.4708 46.5076 87.4708C47.0277 87.4708 47.4834 87.749 47.7374 88.1643C47.9551 87.6482 48.4672 87.2813 49.0639 87.2813C49.3945 87.2813 49.697 87.3942 49.9389 87.5797C49.9389 87.5716 49.9389 87.5676 49.9389 87.5595C49.9389 86.7652 50.58 86.1241 51.3743 86.1241C51.4227 86.1241 51.4751 86.1281 51.5235 86.1322C51.4307 85.9427 51.3743 85.729 51.3743 85.4991C51.3743 84.7048 52.0154 84.0637 52.8097 84.0637C53.604 84.0637 54.2451 84.7048 54.2451 85.4991C54.2411 85.8096 54.1403 86.1039 53.9669 86.3418Z" fill="#278FD0"/>
<path d="M49.1158 73.8752H50.9141V75.6736H49.1158V73.8752Z" fill="#278FD0"/>
<path d="M49.1152 75.6695H43.5792C42.5873 75.6695 41.7809 74.8671 41.7809 73.8712H49.1152V75.6695Z" fill="#003F69"/>
<path d="M63.9458 72.6862H96.9443V73.8716H63.9458V72.6862Z" fill="#1FA2FC"/>
<path d="M31.6968 72.6862H63.9453V73.8716H31.6968V72.6862Z" fill="#003F69"/>
<path opacity="0.5" d="M0.520508 26.1194H127.656L96.9438 73.9317H32.9879L0.520508 26.1194Z" fill="url(#paint1_linear_1397_35039)"/>
<path d="M37.2221 16.9227L26.916 23.3126C31.9139 23.3126 38.5498 24.3273 38.5498 31.1198V43.6229H53.1242C53.1242 43.6229 53.1242 33.3643 53.1242 29.5097C53.1242 25.6551 49.9292 16.9227 37.2221 16.9227Z" fill="#B2B2B2"/>
<path d="M60.847 34.0435H23.7597C23.1001 34.0435 22.7003 34.6277 22.8653 35.346L28.6374 60.52C28.8024 61.2384 29.4704 61.8226 30.1273 61.8226H67.2146C67.8742 61.8226 68.2739 61.2384 68.109 60.52L62.3369 35.346C62.1719 34.6277 61.5039 34.0435 60.847 34.0435Z" fill="#A13966"/>
<path d="M59.4495 34.0435H22.3623C21.7026 34.0435 21.3029 34.6277 21.4678 35.346L27.24 60.52C27.4049 61.2384 28.073 61.8226 28.7298 61.8226H65.8171C66.4768 61.8226 66.8765 61.2384 66.7116 60.52L60.9394 35.346C60.7745 34.6277 60.1064 34.0435 59.4495 34.0435Z" fill="#D64C88"/>
<path d="M67.8252 60.5732L82.8049 63.5278C83.5456 63.6732 84.1997 64.1092 84.619 64.7409L85.3513 65.8423H66.7686" fill="#3C3C3B"/>
<path d="M67.8243 60.5733L27.3436 60.3329L24.8838 65.8423H66.7677L67.8243 60.5733Z" fill="#878787"/>
<path opacity="0.4" d="M49.4201 48.8555C49.8394 52.3636 47.3349 55.2063 43.8268 55.2063C40.3188 55.2063 37.135 52.3636 36.7158 48.8555C36.2965 45.3475 38.801 42.5048 42.309 42.5048C45.8171 42.5048 49.0008 45.3475 49.4201 48.8555Z" fill="#F6F6F6"/>
<path d="M33.8257 16.5789C25.3645 16.5789 15.3659 21.2916 14.3764 30.5411C13.9459 34.5746 14.382 38.7367 14.382 42.787V78.963C14.382 79.7261 15.0025 80.3467 15.7656 80.3467H29.2778C30.0409 80.3467 30.6615 79.7261 30.6615 78.963V31.2762C30.6615 26.7088 33.5909 18.7424 42.667 18.7424C42.667 18.7424 46.6782 18.8011 49.3421 21.2301C49.3449 21.2357 46.1834 16.5789 33.8257 16.5789Z" fill="#DADADA"/>
<path d="M17.1104 31.3546H28.2773" stroke="#3C3C3B" stroke-width="1.58084" stroke-miterlimit="10" stroke-linecap="round"/>
<path d="M17.1104 35.2679H28.2773" stroke="#3C3C3B" stroke-width="1.58084" stroke-miterlimit="10" stroke-linecap="round"/>
<path d="M17.1104 38.8569H28.2773" stroke="#3C3C3B" stroke-width="1.58084" stroke-miterlimit="10" stroke-linecap="round"/>
<path d="M17.1104 49.0289H28.2773" stroke="#3C3C3B" stroke-width="1.58084" stroke-miterlimit="10" stroke-linecap="round"/>
<path d="M17.1104 52.9421H28.2773" stroke="#3C3C3B" stroke-width="1.58084" stroke-miterlimit="10" stroke-linecap="round"/>
<path d="M17.1104 56.5312H28.2773" stroke="#3C3C3B" stroke-width="1.58084" stroke-miterlimit="10" stroke-linecap="round"/>
<path d="M23.3018 59.5687H27.3325" stroke="#3C3C3B" stroke-width="1.58084" stroke-miterlimit="10" stroke-linecap="round"/>
<path d="M17.1104 64.9087H28.2773" stroke="#3C3C3B" stroke-width="1.58084" stroke-miterlimit="10" stroke-linecap="round"/>
<path d="M17.1104 68.822H28.2773" stroke="#3C3C3B" stroke-width="1.58084" stroke-miterlimit="10" stroke-linecap="round"/>
<path d="M17.1104 72.4139H28.2773" stroke="#3C3C3B" stroke-width="1.58084" stroke-miterlimit="10" stroke-linecap="round"/>
<path d="M18.2092 77.7588C18.8128 77.7588 19.3021 77.2694 19.3021 76.6658C19.3021 76.0622 18.8128 75.5729 18.2092 75.5729C17.6055 75.5729 17.1162 76.0622 17.1162 76.6658C17.1162 77.2694 17.6055 77.7588 18.2092 77.7588Z" fill="#3C3C3B"/>
<path d="M22.6925 77.7588C23.2962 77.7588 23.7855 77.2694 23.7855 76.6658C23.7855 76.0622 23.2962 75.5729 22.6925 75.5729C22.0889 75.5729 21.5996 76.0622 21.5996 76.6658C21.5996 77.2694 22.0889 77.7588 22.6925 77.7588Z" fill="#3C3C3B"/>
<path d="M27.1789 77.7588C27.7825 77.7588 28.2718 77.2694 28.2718 76.6658C28.2718 76.0622 27.7825 75.5729 27.1789 75.5729C26.5753 75.5729 26.0859 76.0622 26.0859 76.6658C26.0859 77.2694 26.5753 77.7588 27.1789 77.7588Z" fill="#3C3C3B"/>
<defs>
<linearGradient id="paint0_linear_1397_35039" x1="67.9694" y1="20.7021" x2="67.9694" y2="0.641525" gradientUnits="userSpaceOnUse">
<stop stop-color="#2985C1"/>
<stop offset="1" stop-color="#50A4D9"/>
</linearGradient>
<linearGradient id="paint1_linear_1397_35039" x1="64.9658" y1="26.1194" x2="64.9658" y2="73.9317" gradientUnits="userSpaceOnUse">
<stop stop-color="#1FA2FC" stop-opacity="0"/>
<stop offset="1" stop-color="#A8D9FB"/>
</linearGradient>
</defs>
</svg>
