<svg width="198" height="150" viewBox="0 0 198 150" fill="none" xmlns="http://www.w3.org/2000/svg">
<g clip-path="url(#clip0_1397_35797)">
<path d="M119.716 93.319C117.487 95.7209 117.097 99.3631 118.53 102.246C119.762 103.025 121.242 103.435 122.785 103.317C126.687 103.013 129.588 99.5634 129.281 95.6062C129.185 94.2628 128.709 93.0532 128 92.0113C125.318 90.4585 121.945 90.899 119.716 93.319Z" fill="black"/>
<path d="M139.848 124.468L117.7 99.534C116.492 98.0282 118.956 95.5314 120.349 94.1621C121.564 92.9776 125.341 90.7122 126.576 91.6904L149.531 112.939C152.664 115.32 153.295 120.144 150.959 123.675C148.622 127.205 144.149 128.101 141.016 125.72C140.608 125.273 140.183 124.88 139.848 124.468Z" fill="#1FA2FC"/>
<path d="M135.983 102.487C137.398 103.317 138.777 104.183 140.174 105.068L144.098 108.035L148.023 111.002C148.686 111.499 149.349 111.979 149.978 112.549C150.66 113.083 151.236 113.782 151.704 114.555C152.641 116.138 153.021 118.077 152.763 119.917C152.524 121.812 151.666 123.626 150.363 124.957C149.096 126.27 147.366 127.155 145.661 127.33C143.934 127.323 142.251 126.717 141.067 125.556C142.481 126.385 144.104 126.666 145.625 126.349C147.149 126.195 148.644 125.405 149.787 124.259C150.911 123.076 151.682 121.463 151.907 119.823C152.113 118.147 151.792 116.462 150.968 115.077C150.573 114.357 150.09 113.784 149.464 113.285C148.836 112.769 148.173 112.29 147.528 111.792L143.604 108.825L139.679 105.858C138.405 104.772 137.186 103.684 135.983 102.487Z" fill="#3C3C3B"/>
<path d="M152.209 109.239L128.569 92.3829C128.385 92.2589 128.201 92.1348 127.999 92.0111C128.708 93.0348 129.166 94.263 129.281 95.606C129.588 99.5632 126.669 103.031 122.784 103.317C121.223 103.435 119.761 103.025 118.53 102.246C118.851 102.913 119.28 103.542 119.799 104.096L139.87 125.704C140.333 126.187 140.869 126.686 141.44 127.076C146.042 130.359 152.18 129.016 155.146 124.093C158.13 119.169 156.811 112.503 152.209 109.239Z" fill="#233642"/>
<path d="M129.406 96.152C130.116 92.2742 129.768 89.2348 127.098 86.428C124.444 83.6283 124.392 81.815 124.452 81.151C124.597 79.7153 120.768 78.6501 120.926 82.4765C121.048 85.067 123.597 87.6458 121.84 89.689C120.927 90.7456 122.962 89.7832 123.447 91.7378C123.933 93.6924 125.048 95.4571 125.664 96.3436C126.279 97.2302 129.406 96.152 129.406 96.152Z" fill="#1FA2FC"/>
<path d="M118.908 87.287C116.967 86.474 114.313 86.3438 113.347 88.2124C111.126 92.508 110.715 98.2309 114.053 100.814C118.374 104.151 124.665 103.231 128.12 98.7656C131.576 94.3003 129.898 87.6941 124.475 88.0905C122.109 88.2652 120.274 87.8593 118.908 87.287Z" fill="#1FA2FC"/>
<path fill-rule="evenodd" clip-rule="evenodd" d="M112.667 77.6333L112.666 77.6301L112.666 77.6267L112.665 77.6229C112.665 77.6229 112.665 77.6229 112.665 77.6238C112.502 76.4677 111.435 75.6591 110.277 75.8164C109.115 75.9741 108.301 77.0438 108.459 78.2057C108.618 79.3675 110.11 83.3391 111.356 85.2193C112.548 87.0168 113.813 88.3989 114.784 89.3352C115.27 89.8047 115.687 90.1659 115.989 90.4149C116.154 90.551 116.321 90.6843 116.493 90.8116L116.505 90.8201L116.509 90.8233L116.511 90.8246L116.512 90.8253C116.516 90.8278 118.338 91.9255 119.477 90.3506C120.163 89.4025 119.952 88.0782 119.006 87.3897C119.004 87.3887 119.003 87.3877 119.001 87.3867L119.006 87.3897L118.998 87.3838C118.988 87.3763 118.969 87.3622 118.942 87.3415C118.888 87.3001 118.802 87.2326 118.689 87.1394C118.463 86.9528 118.13 86.6648 117.731 86.2798C116.93 85.5074 115.88 84.3599 114.896 82.8748C113.931 81.4193 113.366 80.0659 113.045 79.0901C112.885 78.6032 112.787 78.214 112.731 77.9582C112.702 77.8305 112.685 77.7366 112.675 77.681C112.67 77.6532 112.667 77.6346 112.666 77.6267C112.665 77.6253 112.665 77.6246 112.665 77.6238" fill="#1FA2FC"/>
<path fill-rule="evenodd" clip-rule="evenodd" d="M108.691 78.933L108.691 78.9298L108.69 78.9264L108.689 78.9226C108.689 78.9226 108.689 78.9226 108.69 78.9236C108.526 77.7674 107.459 76.9588 106.301 77.1161C105.139 77.2738 104.326 78.3435 104.484 79.5054C104.642 80.6672 106.135 84.6388 107.381 86.5191C108.572 88.3166 109.837 89.6986 110.808 90.6349C111.295 91.1044 111.711 91.4656 112.013 91.7146C112.178 91.8507 112.346 91.984 112.518 92.1113L112.529 92.1198L112.534 92.123L112.536 92.1244L112.536 92.125C112.54 92.1275 114.363 93.2252 115.502 91.6504C116.187 90.7022 115.976 89.3779 115.03 88.6894C115.029 88.6884 115.027 88.6874 115.026 88.6864L115.03 88.6894L115.022 88.6835C115.012 88.676 114.993 88.6619 114.966 88.6412C114.913 88.5999 114.827 88.5323 114.714 88.4391C114.487 88.2525 114.154 87.9645 113.755 87.5796C112.954 86.8071 111.904 85.6597 110.92 84.1745C109.955 82.719 109.391 81.3656 109.07 80.3898C108.91 79.9029 108.812 79.5137 108.755 79.258C108.727 79.1302 108.709 79.0363 108.699 78.9807C108.694 78.9529 108.691 78.9344 108.69 78.9264C108.69 78.925 108.69 78.9243 108.69 78.9236" fill="#1FA2FC"/>
<path fill-rule="evenodd" clip-rule="evenodd" d="M106.626 83.4263L106.625 83.4232L106.624 83.4199L106.623 83.4163C106.623 83.4163 106.623 83.4163 106.623 83.4172C106.279 82.3013 105.098 81.6717 103.979 82.0102C102.857 82.3497 102.223 83.5347 102.563 84.657C102.903 85.7792 105.005 89.465 106.533 91.1246C107.993 92.7111 109.461 93.8757 110.567 94.6468C111.122 95.0334 111.591 95.3242 111.928 95.5223C112.113 95.6306 112.299 95.7357 112.489 95.8343L112.502 95.8408L112.507 95.8433L112.509 95.8443L112.51 95.8448C112.513 95.8468 114.487 96.6424 115.362 94.9071C115.889 93.8623 115.471 92.588 114.428 92.0578C114.427 92.0571 114.425 92.0563 114.424 92.0555L114.428 92.0578L114.419 92.0532C114.408 92.0474 114.388 92.0365 114.358 92.0203C114.298 91.9879 114.203 91.9348 114.076 91.8607C113.823 91.7122 113.449 91.4805 112.994 91.1635C112.081 90.5274 110.863 89.5604 109.656 88.2496C108.473 86.9649 107.702 85.7177 107.231 84.805C106.995 84.3495 106.837 83.9807 106.741 83.7371C106.693 83.6154 106.66 83.5255 106.642 83.4721C106.632 83.4454 106.627 83.4276 106.624 83.4199C106.624 83.4186 106.623 83.4179 106.623 83.4172" fill="#1FA2FC"/>
<path fill-rule="evenodd" clip-rule="evenodd" d="M108.379 89.5156L108.378 89.5126L108.377 89.5094L108.375 89.5058C108.375 89.5058 108.375 89.5059 108.376 89.5067C107.958 88.4161 106.738 87.8662 105.644 88.2782C104.547 88.6914 103.993 89.9159 104.407 91.0132C104.82 92.1105 107.162 95.6487 108.797 97.2034C110.359 98.6896 111.901 99.7542 113.056 100.45C113.635 100.799 114.122 101.058 114.472 101.234C114.663 101.329 114.856 101.422 115.052 101.508L115.065 101.513L115.07 101.515L115.072 101.516L115.073 101.517C115.077 101.518 117.099 102.181 117.857 100.392C118.314 99.3144 117.812 98.0706 116.737 97.6108C116.735 97.6101 116.733 97.6094 116.732 97.6087L116.737 97.6108L116.727 97.6067C116.716 97.6017 116.695 97.5921 116.664 97.578C116.602 97.5496 116.503 97.503 116.372 97.4374C116.11 97.306 115.721 97.0997 115.246 96.8135C114.293 96.2394 113.013 95.3554 111.722 94.1274C110.457 92.924 109.604 91.7307 109.074 90.8512C108.809 90.4123 108.626 90.0548 108.514 89.8181C108.458 89.6999 108.42 89.6123 108.398 89.5603C108.387 89.5343 108.38 89.5169 108.377 89.5094C108.376 89.5081 108.376 89.5074 108.376 89.5067" fill="#1FA2FC"/>
<path d="M89.321 64.5219L111.231 60.0961C113.486 59.6404 115.684 61.0991 116.139 63.3549L124.237 103.441C124.656 105.517 123.315 107.537 121.24 107.956L91.981 113.867C89.9057 114.286 87.8851 112.945 87.4659 110.869L79.425 71.0636C78.9383 68.6541 80.4957 66.3081 82.9052 65.8214L89.3217 64.5252L89.321 64.5219Z" fill="#A3235A"/>
<path d="M91.0232 61.9591L112.933 57.5333C115.189 57.0776 117.386 58.5363 117.842 60.7921L125.939 100.878C126.358 102.954 125.017 104.974 122.942 105.394L93.6832 111.304C91.6078 111.723 89.5873 110.382 89.1681 108.306L81.1265 68.4975C80.6397 66.0879 82.1972 63.742 84.6067 63.2553L91.0232 61.9591Z" fill="#D64C88"/>
<path d="M99.2669 54.8762L101.797 61.3425C102.251 62.5031 101.646 63.6409 100.44 63.8846L92.3322 65.5224C91.1291 65.7654 89.7857 65.0211 89.3321 63.8606L86.8015 57.3943C85.5013 54.0743 87.2402 50.8187 90.6824 50.1234C94.1245 49.428 97.97 51.5556 99.2669 54.8762ZM95.7108 56.1268C95.1934 54.8052 93.6625 53.9596 92.2957 54.2357C90.9255 54.5125 90.234 55.807 90.7514 57.1286C91.2688 58.4502 92.7996 59.2957 94.1665 59.0196C95.5373 58.7462 96.2282 57.4484 95.7108 56.1268Z" fill="#782B4C"/>
<path d="M101.075 54.511L103.605 60.9773C104.059 62.1378 103.45 63.2764 102.247 63.5194L94.1399 65.1572C92.9368 65.4002 91.5934 64.6559 91.1398 63.4953L88.6092 57.0291C87.309 53.7091 89.0479 50.4535 92.4901 49.7581C95.9323 49.0628 99.7777 51.1904 101.075 54.511ZM97.5185 55.7616C97.0011 54.44 95.4703 53.5944 94.1034 53.8705C92.7332 54.1473 92.0417 55.4418 92.5591 56.7634C93.0765 58.085 94.6073 58.9305 95.9741 58.6544C97.345 58.381 98.0359 57.0831 97.5185 55.7616Z" fill="#A83C6B"/>
<path d="M85.2512 61.0641L111.933 55.6742C112.812 55.4967 113.664 56.0654 113.841 56.941L115.129 63.314C115.306 64.1929 114.737 65.0452 113.862 65.2221L87.18 70.6119C86.301 70.7895 85.4488 70.2208 85.2719 69.3452L83.9845 62.9722C83.8076 62.0966 84.3723 61.2416 85.2512 61.0641Z" fill="#0064A7"/>
<path d="M100.869 48.0657C104.311 47.3703 107.174 49.6963 107.268 53.26L107.446 60.2016C107.478 61.4472 106.529 62.6546 105.326 62.8976L97.2185 64.5354C96.0154 64.7784 95.0129 63.9652 94.9804 62.7196L94.8025 55.7781C94.7121 52.2137 97.4268 48.761 100.869 48.0657ZM101.115 57.6194C102.486 57.3426 103.568 55.9692 103.529 54.5511C103.492 53.1323 102.353 52.2077 100.982 52.4845C99.6123 52.7613 98.5297 54.1348 98.5692 55.5529C98.6047 56.9683 99.7452 57.8962 101.115 57.6194Z" fill="#A83C6B"/>
<path d="M102.677 47.7004C106.119 47.0051 108.982 49.3311 109.076 52.8948L109.253 59.8363C109.286 61.082 108.337 62.2894 107.134 62.5324L99.0262 64.1701C97.8231 64.4132 96.8205 63.6 96.788 62.3544L96.6102 55.4129C96.5197 51.8485 99.2378 48.3951 102.677 47.7004ZM102.923 57.2542C104.293 56.9774 105.376 55.604 105.336 54.1858C105.3 52.7671 104.16 51.8425 102.79 52.1193C101.42 52.3961 100.337 53.7696 100.377 55.1877C100.412 56.6031 101.553 57.531 102.923 57.2542Z" fill="#D64C88"/>
<line y1="-1.47571" x2="24.6474" y2="-1.47571" transform="matrix(-0.976651 0.21483 0.21483 0.976651 114.499 73.0714)" stroke="white" stroke-width="2.95143"/>
<line y1="-1.47571" x2="24.6474" y2="-1.47571" transform="matrix(-0.976651 0.21483 0.21483 0.976651 116.12 79.9065)" stroke="white" stroke-width="2.95143"/>
<line y1="-1.47571" x2="24.6474" y2="-1.47571" transform="matrix(-0.976651 0.21483 0.21483 0.976651 117.741 86.7417)" stroke="white" stroke-width="2.95143"/>
<line y1="-1.47571" x2="10.4262" y2="-1.47571" transform="matrix(-0.973003 0.230793 0.230793 0.973003 119.323 93.4106)" stroke="white" stroke-width="2.95143"/>
<path d="M145.661 47.0521C159.896 43.5007 174.209 51.7179 177.625 65.4054C181.04 79.0929 172.266 93.0711 158.031 96.6226C143.796 100.174 129.483 91.9567 126.068 78.2692C122.652 64.5818 131.426 50.6036 145.661 47.0521Z" fill="url(#paint0_radial_1397_35797)"/>
<path d="M158.041 96.6711C167.485 94.3163 174.534 87.3829 177.194 78.9815C177.756 74.3205 174.83 70.1246 170.353 71.2438C165.435 72.4697 164.277 78.9379 164.689 83.3082C165.086 87.6301 165.052 92.5139 155.459 97.2186C156.36 97.0393 157.208 96.8794 158.041 96.6711Z" fill="#3C3C3B"/>
<path d="M177.674 65.3956C178.638 68.6225 178.861 72.0335 178.444 75.4009C177.979 78.7828 176.821 82.0871 174.999 85.0523C174.776 85.4109 174.563 85.813 174.277 86.1376C174.006 86.5059 173.778 86.8644 173.507 87.2326C172.95 87.9255 172.436 88.6038 171.821 89.2628C171.249 89.9072 170.571 90.5273 169.936 91.1378C169.592 91.4237 169.243 91.7144 168.899 92.0003C168.555 92.2861 168.206 92.5768 167.848 92.8142C164.98 94.9364 161.641 96.4239 158.211 97.3299C154.718 98.202 151.108 98.3958 147.581 97.8726C144.054 97.3444 140.676 96.1768 137.677 94.4131C134.678 92.6495 132.086 90.2318 130.09 87.4603C128.142 84.6792 126.727 81.5154 126.073 78.2643C127.997 84.718 132.445 90.1882 138.312 93.4005C144.146 96.6709 151.311 97.5431 157.852 95.9103C164.456 94.3114 170.314 90.1397 173.924 84.5145C174.835 83.1337 175.61 81.6317 176.211 80.0764C176.375 79.6839 176.535 79.2915 176.652 78.9136L177.029 77.712C177.296 76.8931 177.461 76.0985 177.63 75.2991C178.357 72.111 178.289 68.7097 177.674 65.3956Z" fill="#3C3C3B"/>
<path fill-rule="evenodd" clip-rule="evenodd" d="M139.106 33.5651C140.862 33.7979 142.393 34.7269 143.563 36.1171C145.322 34.2707 147.609 33.2742 149.958 33.5856C152.15 33.8761 153.993 35.2517 155.219 37.2549C156.421 36.3178 157.845 35.8521 159.302 36.0457C161.773 36.3743 163.661 38.5124 164.302 41.3288C165.311 40.7628 166.431 40.5106 167.571 40.6621C168.777 40.8224 169.844 41.4136 170.695 42.3041C175.725 47.0948 179.748 58.4291 177.88 74.7764C177.88 74.7764 171.982 93.559 164.302 96.5047C156.621 99.4504 147.631 98.4685 147.631 98.4685C154.679 71.9569 144.847 55.6644 136.326 54.5349C131.822 53.9379 128.793 48.7596 129.56 42.969C130.328 37.1784 134.601 32.9681 139.106 33.5651Z" fill="#0064A7"/>
<path fill-rule="evenodd" clip-rule="evenodd" d="M126.707 119.12C129.653 110.258 127.516 97.5151 117.177 102.632C105.517 108.812 96.5109 119.16 86.0371 126.988C80.7091 131.472 79.5584 146.715 88.6195 146.901C96.6725 147.067 125.144 126.636 126.707 119.12Z" fill="#233642"/>
<path d="M110.82 115.325C111.542 126.018 112.516 124.84 113.262 135.485C113.693 140.805 114.125 146.125 114.343 151.45C114.595 156.775 114.396 162.099 114.028 167.448C113.824 170.118 113.563 172.788 113.286 175.482C113.039 178.176 112.715 180.908 112.967 183.743C113.044 185.162 113.437 186.563 113.921 187.885C114.503 189.155 115.195 190.351 116.053 191.33C117.729 193.321 119.595 194.964 121.591 196.374C125.569 199.208 129.619 198.525 134.227 198.646C136.533 198.695 137.754 194.039 140.017 193.52C142.251 192.881 144.479 192.149 146.587 191.068C148.714 190.051 151.951 193.961 154.092 193.084C156.675 192.042 158.385 193.06 160.967 192.028C163.099 191.112 165.313 190.017 167.033 188.181C168.768 186.359 169.756 183.999 170.377 181.708C171.486 177.056 171.549 172.449 171.869 167.938C172.155 163.412 172.484 158.921 172.804 154.468C173.453 145.563 174.161 136.798 174.679 128.111C175.018 119.424 175.265 110.79 174.476 102.131C174.96 110.794 174.403 119.385 173.763 128.058C173.245 136.745 172.542 145.519 171.893 154.434C171.573 158.892 171.249 163.388 170.963 167.923C170.643 172.454 170.57 177.042 169.5 181.519C168.904 183.723 167.983 185.889 166.408 187.532C164.853 189.189 162.77 190.235 160.667 191.127C158.089 192.149 156.374 191.122 153.801 192.154C151.65 193.026 148.326 189.15 146.248 190.138C144.184 191.19 142.018 191.892 139.838 192.508C137.638 193.002 136.49 197.643 134.256 197.59C129.799 197.459 125.908 198.186 122.051 195.439C120.128 194.082 118.287 192.449 116.702 190.565C115.893 189.644 115.268 188.549 114.74 187.406C114.309 186.214 113.945 184.968 113.878 183.641C113.64 181.015 113.95 178.306 114.197 175.627C114.474 172.943 114.735 170.254 114.944 167.565C115.317 162.187 115.515 156.799 115.263 151.431C115.026 146.072 114.629 140.742 114.183 135.417C113.146 124.787 111.847 126.003 110.82 115.325Z" fill="#3C3C3B"/>
<path d="M114.018 104.506C111.053 106.686 109.535 112.003 109.825 115.477C111.017 129.848 115.123 143.562 114.919 157.85C114.634 178.263 110.225 184.411 117.046 191.747C123.868 199.087 133.471 198.675 148.603 194.499C163.976 190.259 169.955 191.999 171.108 172.928C172.528 149.425 187.785 135.577 185.513 112.524C184.292 100.116 169.35 95.0769 164.999 94.2678C156.156 92.6253 148.981 90.9198 140.143 92.3491C135.991 93.0226 131.945 94.2823 128.34 96.4723C123.868 99.1832 118.121 101.477 114.018 104.506Z" fill="#233642"/>
<path d="M188.642 99.9462H163.336C148.399 99.9462 134.304 116.386 133.698 134.516L132.041 184.106C131.557 198.554 139.958 209.18 151.863 209.18H164.155C176.059 209.18 187.954 198.559 192.232 184.106L206.899 134.516C212.262 116.386 203.58 99.9462 188.642 99.9462Z" fill="#1C6694"/>
<path opacity="0.5" d="M185.338 184.106L200.004 134.516C205.368 116.386 196.681 99.9462 181.743 99.9462H188.643C203.58 99.9462 212.263 116.386 206.904 134.516L192.238 184.106C187.964 198.554 176.07 209.18 164.16 209.18H157.261C169.17 209.18 181.065 198.559 185.338 184.106Z" fill="#3C3C3B"/>
<path d="M150.526 70.7706C150.526 66.9672 153.61 63.884 157.413 63.884H207.18C209.811 63.884 211.948 66.0206 211.948 68.6515V91.2444C211.948 93.8753 209.811 96.012 207.18 96.012H157.413C153.61 96.012 150.526 92.9287 150.526 89.1253V70.7706Z" fill="#1C6694"/>
<path d="M73.6685 102.335C76.6407 100.955 80.2255 101.707 82.5266 103.959C82.8872 105.371 82.8214 106.905 82.2337 108.337C80.741 111.955 76.565 113.652 72.8952 112.14C71.647 111.634 70.643 110.808 69.8706 109.812C69.2202 106.782 70.6792 103.709 73.6685 102.335Z" fill="black"/>
<path d="M97.0915 131.09L80.2004 102.334C79.1405 100.72 76.0057 102.294 74.2734 103.197C72.7721 103.988 69.4528 106.882 70.0025 108.359L83.1387 136.747C84.438 140.461 88.8324 142.549 92.9113 141.415C96.9903 140.281 99.2219 136.301 97.9226 132.587C97.6229 132.061 97.3805 131.536 97.0915 131.09Z" fill="#1FA2FC"/>
<path d="M77.3726 120.638C77.7257 122.239 78.1251 123.818 78.5357 125.42L80.1483 130.068L81.7608 134.716C82.0295 135.5 82.281 136.279 82.6302 137.052C82.9273 137.866 83.4146 138.629 84.006 139.313C85.2232 140.692 86.9499 141.651 88.7802 141.973C90.6561 142.33 92.6468 142.073 94.3151 141.244C95.9545 140.443 97.329 139.071 98.0214 137.503C98.5479 135.858 98.4895 134.07 97.7502 132.585C98.1034 134.187 97.8701 135.817 97.0992 137.166C96.483 138.569 95.2713 139.747 93.8279 140.481C92.3561 141.185 90.5839 141.421 88.9545 141.13C87.2967 140.81 85.7929 139.985 84.7293 138.773C84.1659 138.176 83.7694 137.54 83.4889 136.79C83.1912 136.034 82.9397 135.256 82.6651 134.489L81.0526 129.841L79.44 125.192C78.799 123.646 78.1403 122.151 77.3726 120.638Z" fill="#3C3C3B"/>
<path d="M78.7953 138.154L70.0488 110.469C69.9875 110.255 69.9262 110.042 69.8708 109.812C70.6261 110.802 71.6532 111.616 72.8954 112.14C76.5652 113.652 80.7643 111.944 82.2339 108.337C82.8276 106.888 82.8874 105.371 82.5268 103.959C83.0623 104.47 83.528 105.073 83.8954 105.737L98.2625 131.492C98.5789 132.082 98.889 132.746 99.0841 133.408C100.788 138.799 97.6175 144.224 92.0199 145.528C86.4163 146.848 80.4816 143.539 78.7953 138.154Z" fill="#233642"/>
<path d="M82.8339 108.14C84.1486 104.423 84.2859 101.366 82.0936 98.1723C79.9167 94.9878 80.1524 93.1891 80.3168 92.5429C80.6875 91.1482 77.0754 89.4905 76.626 93.2939C76.3362 95.8713 78.4445 98.821 76.3863 100.561C75.3178 101.46 77.4797 100.831 77.6494 102.838C77.8192 104.845 78.6415 106.764 79.1086 107.737C79.5757 108.71 82.8339 108.14 82.8339 108.14Z" fill="#1FA2FC"/>
<path d="M81.2783 93.2318L82.1074 97.4807L57.0867 102.358L52.726 101.805C51.9102 101.702 51.7027 100.614 52.4231 100.218L56.2577 98.1086L81.2783 93.2318Z" fill="#0064A7"/>
<path d="M77.6738 91.7531L77.945 93.1428L69.7615 94.7378L-nan -nanL69.7615 94.7378C69.0474 94.6473 68.8597 93.6951 69.4903 93.3481L-nan -nanL69.4903 93.3481L77.6738 91.7531Z" fill="#0064A7"/>
<path d="M81.042 91.1238L82.1372 96.7367L76.3524 97.8642L75.2572 92.2514L81.042 91.1238Z" fill="#0064A7"/>
<path d="M83.7219 92.9385C84.5912 92.7691 85.4335 93.3367 85.6031 94.2063C85.7728 95.0759 85.2057 95.9182 84.3364 96.0876L83.814 96.1894C82.9447 96.3588 82.1024 95.7913 81.9327 94.9217C81.763 94.0521 82.3302 93.2098 83.1995 93.0404L83.7219 92.9385Z" fill="#D64C88"/>
<path d="M82.3762 92.794C83.2967 92.6146 84.1886 93.2156 84.3683 94.1364L84.5418 95.0257C84.7215 95.9466 84.121 96.8385 83.2005 97.0179L82.1806 97.2167C81.2601 97.3961 80.3682 96.7951 80.1886 95.8742L80.015 94.9849C79.8353 94.0641 80.4359 93.1722 81.3564 92.9928L82.3762 92.794Z" fill="#0064A7"/>
<path d="M70.9144 96.7761C69.0449 93.4355 70.5678 93.865 67.7754 94.8362C65.0392 95.3691 65.1546 103.099 64.4846 106.185C63.8569 105.797 66.1124 109.123 67.531 110.681C71.0182 114.506 77.1166 114.432 81.1653 110.526C85.214 106.62 84.7967 99.9514 79.61 99.6273C77.591 99.5026 72.288 99.2307 70.9144 96.7761Z" fill="#1FA2FC"/>
<path fill-rule="evenodd" clip-rule="evenodd" d="M64.0697 104.249C64.0697 104.249 64.0697 104.249 64.0697 104.249L64.0676 104.246L64.0654 104.244L64.0629 104.241C64.0629 104.241 64.063 104.241 64.0636 104.242C63.3121 103.348 61.979 103.228 61.0809 103.976C60.18 104.726 60.0578 106.065 60.808 106.966L62.4264 105.619C60.808 106.966 60.8084 106.967 60.8088 106.967L60.8115 106.97L60.8158 106.975L60.8263 106.988L60.8558 107.022C60.8791 107.049 60.91 107.084 60.9483 107.127C61.025 107.212 61.1316 107.327 61.2682 107.466C61.541 107.744 61.9345 108.119 62.4478 108.547C63.4728 109.4 64.9872 110.47 66.9824 111.377C68.9451 112.27 70.7502 112.771 72.0693 113.05C72.7307 113.19 73.2753 113.275 73.6633 113.326C73.8575 113.351 74.0129 113.368 74.1248 113.379C74.1807 113.385 74.2258 113.389 74.2593 113.392L74.3011 113.395L74.3153 113.396L74.3208 113.396L74.3231 113.396L74.3242 113.396C74.3247 113.396 74.3252 113.397 74.4673 111.278L74.3252 113.397C75.4949 113.475 76.5068 112.591 76.5853 111.421C76.6636 110.253 75.7822 109.242 74.6155 109.16C74.6138 109.16 74.6121 109.16 74.6103 109.16L74.6155 109.16L74.6056 109.159C74.5931 109.158 74.5698 109.156 74.536 109.153C74.4686 109.146 74.3599 109.135 74.2147 109.116C73.924 109.077 73.4889 109.01 72.9466 108.895C71.8583 108.665 70.3599 108.249 68.7382 107.512C67.1489 106.789 65.9527 105.941 65.1633 105.283C64.7694 104.955 64.4798 104.677 64.2962 104.491C64.2046 104.397 64.1397 104.327 64.1019 104.285C64.0831 104.264 64.0707 104.25 64.0654 104.244C64.0645 104.243 64.0641 104.242 64.0636 104.242C64.0636 104.242 64.0636 104.242 64.0636 104.242M64.0697 104.249C64.0697 104.249 64.0697 104.249 64.0697 104.249V104.249Z" fill="#1FA2FC"/>
<path fill-rule="evenodd" clip-rule="evenodd" d="M71.055 93.4416C71.055 93.4416 71.055 93.4416 71.055 93.4416L71.055 93.4416ZM70.8057 91.3329C70.5581 89.224 70.5572 89.2241 70.5562 89.2243L70.5542 89.2245L70.5499 89.225L70.5401 89.2262L70.5154 89.2294C70.4968 89.2318 70.4737 89.235 70.4466 89.239C70.3925 89.2469 70.3218 89.2582 70.2369 89.2736C70.0678 89.3043 69.8388 89.3521 69.57 89.4242C69.0418 89.5658 68.3112 89.8141 67.5673 90.2447C66.0137 91.1441 64.3352 92.9225 64.5247 95.9132C64.682 98.3972 65.6341 100.069 66.7044 101.127C67.2216 101.638 67.7361 101.977 68.1398 102.193C68.3421 102.301 68.5188 102.38 68.6578 102.436C68.7274 102.464 68.788 102.486 68.838 102.503C68.8631 102.512 68.8855 102.519 68.9052 102.526L68.9327 102.534L68.9448 102.538L68.9505 102.54L68.9532 102.541C68.9546 102.541 68.9559 102.542 69.5624 100.507L68.9559 102.542C70.0794 102.877 71.2617 102.238 71.5966 101.114C71.9254 100.011 71.3156 98.8514 70.2305 98.4918C70.2169 98.4861 70.1861 98.4725 70.1427 98.4492C70.0379 98.3931 69.8693 98.2863 69.6879 98.107C69.3608 97.7838 68.8533 97.0923 68.7617 95.6461C68.7022 94.7067 69.1049 94.2618 69.6948 93.9203C70.0226 93.7305 70.3793 93.604 70.6705 93.5259C70.8114 93.4882 70.9251 93.4649 70.9962 93.452C71.0315 93.4456 71.0553 93.4419 71.0657 93.4404C71.0672 93.4401 71.0684 93.44 71.0693 93.4398C72.2252 93.2957 73.05 92.2453 72.9139 91.086C72.7772 89.9213 71.7225 89.0877 70.5581 89.224L70.8057 91.3329Z" fill="#1FA2FC"/>
<path fill-rule="evenodd" clip-rule="evenodd" d="M68.336 94.0097C68.3366 94.0097 68.3371 94.0097 68.3174 96.1329L68.3371 94.0097C69.5094 94.021 70.4509 94.9808 70.44 96.1534C70.4291 97.3249 69.4717 98.2656 68.3009 98.2561L68.2955 98.2561L68.259 98.2562C68.2237 98.2565 68.1677 98.2572 68.0944 98.2591C67.9472 98.2629 67.7345 98.2715 67.4847 98.2907C67.0104 98.3269 66.4733 98.3959 66.0116 98.5133C66.8556 99.6439 67.5005 100.141 67.8398 100.347C67.9736 100.429 68.0642 100.468 68.1069 100.484C69.1696 100.628 69.9746 101.553 69.9435 102.65C69.9101 103.822 68.9332 104.745 67.7613 104.711L67.8216 102.588C67.7613 104.711 67.7592 104.711 67.7572 104.711L67.753 104.711L67.7446 104.71L67.7273 104.71C67.7156 104.709 67.7034 104.708 67.6908 104.708C67.6656 104.706 67.6388 104.704 67.6102 104.702C67.5532 104.696 67.4897 104.689 67.4201 104.678C67.2806 104.656 67.118 104.621 66.9347 104.567C66.5665 104.458 66.1263 104.275 65.6322 103.974C64.6446 103.372 63.4763 102.323 62.2233 100.515C61.8163 99.9283 61.4865 99.2434 61.4006 98.4756C61.309 97.6564 61.5135 96.8909 61.9401 96.2577C62.6897 95.145 63.9538 94.681 64.7203 94.4632C65.5997 94.2134 66.5129 94.1059 67.1596 94.0565C67.4928 94.031 67.7778 94.0193 67.9824 94.014C68.0851 94.0113 68.1685 94.0102 68.2287 94.0098C68.2589 94.0096 68.2833 94.0095 68.3015 94.0096L68.3241 94.0096L68.3318 94.0097L68.336 94.0097ZM68.2995 98.2561C68.2993 98.2561 68.2996 98.2561 68.2995 98.2561V98.2561ZM68.2985 98.2561C68.2985 98.2561 68.2985 98.2561 68.2985 98.2561V98.2561Z" fill="#1FA2FC"/>
<path fill-rule="evenodd" clip-rule="evenodd" d="M66.6641 98.2126C66.6641 98.2126 66.6652 98.2126 66.6455 100.336L66.6652 98.2126C67.8375 98.2239 68.779 99.1836 68.7681 100.356C68.7572 101.528 67.7998 102.468 66.629 102.459L66.6237 102.459L66.5871 102.459C66.5518 102.459 66.4958 102.46 66.4225 102.462C66.2753 102.466 66.0627 102.474 65.8129 102.494C65.3385 102.53 64.8014 102.599 64.3397 102.716C65.1837 103.847 65.8287 104.344 66.1679 104.55C66.3018 104.632 66.3923 104.671 66.435 104.687C67.4978 104.83 68.3027 105.756 68.2716 106.852C68.2383 108.025 67.2613 108.947 66.0894 108.914L66.1497 106.791C66.0894 108.914 66.0873 108.914 66.0853 108.914L66.0812 108.913L66.0728 108.913L66.0555 108.912C66.0437 108.912 66.0316 108.911 66.019 108.911C65.9938 108.909 65.9669 108.907 65.9384 108.904C65.8813 108.899 65.8178 108.892 65.7482 108.881C65.6088 108.859 65.4461 108.824 65.2628 108.77C64.8946 108.661 64.4544 108.478 63.9604 108.177C62.9727 107.575 61.8044 106.525 60.5515 104.718C60.1444 104.131 59.8146 103.446 59.7288 102.678C59.6371 101.859 59.8416 101.094 60.2682 100.461C61.0179 99.3479 62.2819 98.8839 63.0485 98.6661C63.9278 98.4162 64.8411 98.3088 65.4877 98.2593C65.821 98.2338 66.1059 98.2221 66.3106 98.2168C66.4132 98.2141 66.4966 98.213 66.5568 98.2126C66.587 98.2124 66.6114 98.2124 66.6296 98.2124L66.6522 98.2125L66.6599 98.2125L66.6641 98.2126Z" fill="#1FA2FC"/>
</g>
<defs>
<radialGradient id="paint0_radial_1397_35797" cx="0" cy="0" r="1" gradientUnits="userSpaceOnUse" gradientTransform="translate(142.46 59.5724) rotate(-14.0098) scale(43.25 41.5823)">
<stop stop-color="#86CDFD"/>
<stop offset="0.4193" stop-color="#1FA2FC"/>
<stop offset="1" stop-color="#004B7D"/>
</radialGradient>
<clipPath id="clip0_1397_35797">
<rect x="0.5" width="197" height="155" rx="8" fill="white"/>
</clipPath>
</defs>
</svg>
